<?xml version="1.0" encoding="UTF-8"?>
<svg version="1.1" xmlns="http://www.w3.org/2000/svg" width="512" height="512">
<path d="M0 0 C110.88 0 221.76 0 336 0 C336 5.28 336 10.56 336 16 C349.2 16 362.4 16 376 16 C376 21.28 376 26.56 376 32 C381.28 32 386.56 32 392 32 C392 37.28 392 42.56 392 48 C397.28 48 402.56 48 408 48 C408 63.84 408 79.68 408 96 C413.28 96 418.56 96 424 96 C424 201.6 424 307.2 424 416 C418.72 416 413.44 416 408 416 C408 431.84 408 447.68 408 464 C402.72 464 397.44 464 392 464 C392 469.28 392 474.56 392 480 C386.72 480 381.44 480 376 480 C376 485.28 376 490.56 376 496 C362.8 496 349.6 496 336 496 C336 501.28 336 506.56 336 512 C225.12 512 114.24 512 0 512 C0 506.72 0 501.44 0 496 C-13.2 496 -26.4 496 -40 496 C-40 490.72 -40 485.44 -40 480 C-45.28 480 -50.56 480 -56 480 C-56 474.72 -56 469.44 -56 464 C-61.28 464 -66.56 464 -72 464 C-72 448.16 -72 432.32 -72 416 C-77.28 416 -82.56 416 -88 416 C-88 310.4 -88 204.8 -88 96 C-82.72 96 -77.44 96 -72 96 C-72 80.16 -72 64.32 -72 48 C-66.72 48 -61.44 48 -56 48 C-56 42.72 -56 37.44 -56 32 C-50.72 32 -45.44 32 -40 32 C-40 26.72 -40 21.44 -40 16 C-26.8 16 -13.6 16 0 16 C0 10.72 0 5.44 0 0 Z " fill="#FFFFFF" transform="translate(88,0)"/>
<path d="M0 0 C52.8 0 105.6 0 160 0 C160 52.8 160 105.6 160 160 C107.2 160 54.4 160 0 160 C0 107.2 0 54.4 0 0 Z " fill="#000000" transform="translate(0,120)"/>
<path d="M0 0 C52.8 0 105.6 0 160 0 C160 52.8 160 105.6 160 160 C107.2 160 54.4 160 0 160 C0 149.44 0 138.88 0 128 C42.24 128 84.48 128 128 128 C128 117.44 128 106.88 128 96 C85.76 96 43.52 96 0 96 C0 64.32 0 32.64 0 0 Z " fill="#000000" transform="translate(352,120)"/>
<path d="M0 0 C10.56 0 21.12 0 32 0 C32 5.28 32 10.56 32 16 C37.28 16 42.56 16 48 16 C48 21.28 48 26.56 48 32 C53.28 32 58.56 32 64 32 C64 37.28 64 42.56 64 48 C69.28 48 74.56 48 80 48 C80 53.28 80 58.56 80 64 C85.28 64 90.56 64 96 64 C96 69.28 96 74.56 96 80 C103.92 80 111.84 80 120 80 C120 85.28 120 90.56 120 96 C133.2 96 146.4 96 160 96 C160 98.64 160 101.28 160 104 C170.56 104 181.12 104 192 104 C192 106.64 192 109.28 192 112 C223.68 112 255.36 112 288 112 C288 109.36 288 106.72 288 104 C298.56 104 309.12 104 320 104 C320 101.36 320 98.72 320 96 C333.2 96 346.4 96 360 96 C360 90.72 360 85.44 360 80 C367.92 80 375.84 80 384 80 C384 74.72 384 69.44 384 64 C389.28 64 394.56 64 400 64 C400 58.72 400 53.44 400 48 C405.28 48 410.56 48 416 48 C416 42.72 416 37.44 416 32 C421.28 32 426.56 32 432 32 C432 26.72 432 21.44 432 16 C426.72 16 421.44 16 416 16 C416 10.72 416 5.44 416 0 C437.12 0 458.24 0 480 0 C480 21.12 480 42.24 480 64 C474.72 64 469.44 64 464 64 C464 58.72 464 53.44 464 48 C458.72 48 453.44 48 448 48 C448 53.28 448 58.56 448 64 C442.72 64 437.44 64 432 64 C432 69.28 432 74.56 432 80 C426.72 80 421.44 80 416 80 C416 85.28 416 90.56 416 96 C408.08 96 400.16 96 392 96 C392 101.28 392 106.56 392 112 C384.08 112 376.16 112 368 112 C368 117.28 368 122.56 368 128 C357.44 128 346.88 128 336 128 C336 133.28 336 138.56 336 144 C320.16 144 304.32 144 288 144 C288 146.64 288 149.28 288 152 C256.32 152 224.64 152 192 152 C192 149.36 192 146.72 192 144 C176.16 144 160.32 144 144 144 C144 138.72 144 133.44 144 128 C133.44 128 122.88 128 112 128 C112 122.72 112 117.44 112 112 C104.08 112 96.16 112 88 112 C88 106.72 88 101.44 88 96 C80.08 96 72.16 96 64 96 C64 90.72 64 85.44 64 80 C58.72 80 53.44 80 48 80 C48 74.72 48 69.44 48 64 C42.72 64 37.44 64 32 64 C32 58.72 32 53.44 32 48 C26.72 48 21.44 48 16 48 C16 42.72 16 37.44 16 32 C10.72 32 5.44 32 0 32 C0 21.44 0 10.88 0 0 Z " fill="#DF7126" transform="translate(16,304)"/>
<path d="M0 0 C10.56 0 21.12 0 32 0 C32 42.24 32 84.48 32 128 C42.56 128 53.12 128 64 128 C64 85.76 64 43.52 64 0 C74.56 0 85.12 0 96 0 C96 42.24 96 84.48 96 128 C106.56 128 117.12 128 128 128 C128 85.76 128 43.52 128 0 C138.56 0 149.12 0 160 0 C160 52.8 160 105.6 160 160 C107.2 160 54.4 160 0 160 C0 107.2 0 54.4 0 0 Z " fill="#000000" transform="translate(176,120)"/>
<path d="M0 0 C42.24 0 84.48 0 128 0 C128 10.56 128 21.12 128 32 C85.76 32 43.52 32 0 32 C0 21.44 0 10.88 0 0 Z " fill="#FFFFFF" transform="translate(384,152)"/>
<path d="M0 0 C42.24 0 84.48 0 128 0 C128 10.56 128 21.12 128 32 C85.76 32 43.52 32 0 32 C0 21.44 0 10.88 0 0 Z " fill="#FFFFFF" transform="translate(0,152)"/>
<path d="M0 0 C31.68 0 63.36 0 96 0 C96 10.56 96 21.12 96 32 C64.32 32 32.64 32 0 32 C0 21.44 0 10.88 0 0 Z " fill="#FFFFFF" transform="translate(32,216)"/>
</svg>
