<svg version="1.1" xmlns="http://www.w3.org/2000/svg" width="320" height="320">
    <title>CV</title>
    <style>
        .s0 { fill: #733B56 }
    </style>
    <path class="s0" d="M0 0 C49.5 0 99 0 150 0 C150 1.65 150 3.3 150 5 C151.65 5 153.3 5 155 5 C155 6.65 155 8.3 155 10 C156.65 10 158.3 10 160 10 C160 11.65 160 13.3 160 15 C161.65 15 163.3 15 165 15 C165 16.65 165 18.3 165 20 C166.65 20 168.3 20 170 20 C170 21.65 170 23.3 170 25 C171.65 25 173.3 25 175 25 C175 26.65 175 28.3 175 30 C176.65 30 178.3 30 180 30 C180 31.65 180 33.3 180 35 C181.65 35 183.3 35 185 35 C185 36.65 185 38.3 185 40 C186.65 40 188.3 40 190 40 C190 41.65 190 43.3 190 45 C191.65 45 193.3 45 195 45 C195 46.65 195 48.3 195 50 C196.65 50 198.3 50 200 50 C200 51.65 200 53.3 200 55 C201.65 55 203.3 55 205 55 C205 56.65 205 58.3 205 60 C206.65 60 208.3 60 210 60 C210 61.65 210 63.3 210 65 C211.65 65 213.3 65 215 65 C215 66.65 215 68.3 215 70 C216.65 70 218.3 70 220 70 C220 71.65 220 73.3 220 75 C221.65 75 223.3 75 225 75 C225 76.65 225 78.3 225 80 C226.65 80 228.3 80 230 80 C230 152.6 230 225.2 230 300 C154.1 300 78.2 300 0 300 C0 201 0 102 0 0 Z M55 20 C55 21.65 55 23.3 55 25 C51.7 25 48.4 25 45 25 C45 28.3 45 31.6 45 35 C43.35 35 41.7 35 40 35 C40 43.25 40 51.5 40 60 C41.65 60 43.3 60 45 60 C45 63.3 45 66.6 45 70 C48.3 70 51.6 70 55 70 C55 71.65 55 73.3 55 75 C63.25 75 71.5 75 80 75 C80 73.35 80 71.7 80 70 C83.3 70 86.6 70 90 70 C90 66.7 90 63.4 90 60 C91.65 60 93.3 60 95 60 C95 51.75 95 43.5 95 35 C93.35 35 91.7 35 90 35 C90 31.7 90 28.4 90 25 C86.7 25 83.4 25 80 25 C80 23.35 80 21.7 80 20 C71.75 20 63.5 20 55 20 Z M150 20 C150 39.8 150 59.6 150 80 C169.8 80 189.6 80 210 80 C210 78.35 210 76.7 210 75 C208.35 75 206.7 75 205 75 C205 73.35 205 71.7 205 70 C203.35 70 201.7 70 200 70 C200 68.35 200 66.7 200 65 C198.35 65 196.7 65 195 65 C195 63.35 195 61.7 195 60 C193.35 60 191.7 60 190 60 C190 58.35 190 56.7 190 55 C188.35 55 186.7 55 185 55 C185 53.35 185 51.7 185 50 C183.35 50 181.7 50 180 50 C180 48.35 180 46.7 180 45 C178.35 45 176.7 45 175 45 C175 43.35 175 41.7 175 40 C173.35 40 171.7 40 170 40 C170 38.35 170 36.7 170 35 C168.35 35 166.7 35 165 35 C165 33.35 165 31.7 165 30 C163.35 30 161.7 30 160 30 C160 28.35 160 26.7 160 25 C158.35 25 156.7 25 155 25 C155 23.35 155 21.7 155 20 C153.35 20 151.7 20 150 20 Z M50 80 C50 81.65 50 83.3 50 85 C46.7 85 43.4 85 40 85 C40 86.65 40 88.3 40 90 C38.35 90 36.7 90 35 90 C35 91.65 35 93.3 35 95 C33.35 95 31.7 95 30 95 C30 96.65 30 98.3 30 100 C28.35 100 26.7 100 25 100 C25 103.3 25 106.6 25 110 C23.35 110 21.7 110 20 110 C20 114.95 20 119.9 20 125 C23.3 125 26.6 125 30 125 C30 121.7 30 118.4 30 115 C31.65 115 33.3 115 35 115 C35 111.7 35 108.4 35 105 C36.65 105 38.3 105 40 105 C40 103.35 40 101.7 40 100 C41.65 100 43.3 100 45 100 C45 98.35 45 96.7 45 95 C48.3 95 51.6 95 55 95 C55 93.35 55 91.7 55 90 C63.25 90 71.5 90 80 90 C80 91.65 80 93.3 80 95 C83.3 95 86.6 95 90 95 C90 96.65 90 98.3 90 100 C91.65 100 93.3 100 95 100 C95 101.65 95 103.3 95 105 C96.65 105 98.3 105 100 105 C100 108.3 100 111.6 100 115 C101.65 115 103.3 115 105 115 C105 118.3 105 121.6 105 125 C108.3 125 111.6 125 115 125 C115 120.05 115 115.1 115 110 C113.35 110 111.7 110 110 110 C110 106.7 110 103.4 110 100 C108.35 100 106.7 100 105 100 C105 98.35 105 96.7 105 95 C103.35 95 101.7 95 100 95 C100 93.35 100 91.7 100 90 C98.35 90 96.7 90 95 90 C95 88.35 95 86.7 95 85 C91.7 85 88.4 85 85 85 C85 83.35 85 81.7 85 80 C73.45 80 61.9 80 50 80 Z M60 170 C60 171.65 60 173.3 60 175 C56.7 175 53.4 175 50 175 C50 176.65 50 178.3 50 180 C48.35 180 46.7 180 45 180 C45 181.65 45 183.3 45 185 C43.35 185 41.7 185 40 185 C40 188.3 40 191.6 40 195 C38.35 195 36.7 195 35 195 C35 204.9 35 214.8 35 225 C36.65 225 38.3 225 40 225 C40 228.3 40 231.6 40 235 C41.65 235 43.3 235 45 235 C45 236.65 45 238.3 45 240 C46.65 240 48.3 240 50 240 C50 241.65 50 243.3 50 245 C53.3 245 56.6 245 60 245 C60 246.65 60 248.3 60 250 C69.9 250 79.8 250 90 250 C90 248.35 90 246.7 90 245 C93.3 245 96.6 245 100 245 C100 243.35 100 241.7 100 240 C101.65 240 103.3 240 105 240 C105 236.7 105 233.4 105 230 C101.7 230 98.4 230 95 230 C95 231.65 95 233.3 95 235 C91.7 235 88.4 235 85 235 C85 236.65 85 238.3 85 240 C78.4 240 71.8 240 65 240 C65 238.35 65 236.7 65 235 C61.7 235 58.4 235 55 235 C55 233.35 55 231.7 55 230 C53.35 230 51.7 230 50 230 C50 226.7 50 223.4 50 220 C48.35 220 46.7 220 45 220 C45 213.4 45 206.8 45 200 C46.65 200 48.3 200 50 200 C50 196.7 50 193.4 50 190 C51.65 190 53.3 190 55 190 C55 188.35 55 186.7 55 185 C58.3 185 61.6 185 65 185 C65 183.35 65 181.7 65 180 C71.6 180 78.2 180 85 180 C85 181.65 85 183.3 85 185 C88.3 185 91.6 185 95 185 C95 186.65 95 188.3 95 190 C98.3 190 101.6 190 105 190 C105 186.7 105 183.4 105 180 C103.35 180 101.7 180 100 180 C100 178.35 100 176.7 100 175 C96.7 175 93.4 175 90 175 C90 173.35 90 171.7 90 170 C80.1 170 70.2 170 60 170 Z M115 170 C115 174.95 115 179.9 115 185 C116.65 185 118.3 185 120 185 C120 188.3 120 191.6 120 195 C121.65 195 123.3 195 125 195 C125 198.3 125 201.6 125 205 C126.65 205 128.3 205 130 205 C130 208.3 130 211.6 130 215 C131.65 215 133.3 215 135 215 C135 218.3 135 221.6 135 225 C136.65 225 138.3 225 140 225 C140 228.3 140 231.6 140 235 C141.65 235 143.3 235 145 235 C145 238.3 145 241.6 145 245 C146.65 245 148.3 245 150 245 C150 246.65 150 248.3 150 250 C153.3 250 156.6 250 160 250 C160 248.35 160 246.7 160 245 C161.65 245 163.3 245 165 245 C165 241.7 165 238.4 165 235 C166.65 235 168.3 235 170 235 C170 231.7 170 228.4 170 225 C171.65 225 173.3 225 175 225 C175 221.7 175 218.4 175 215 C176.65 215 178.3 215 180 215 C180 211.7 180 208.4 180 205 C181.65 205 183.3 205 185 205 C185 201.7 185 198.4 185 195 C186.65 195 188.3 195 190 195 C190 191.7 190 188.4 190 185 C191.65 185 193.3 185 195 185 C195 180.05 195 175.1 195 170 C191.7 170 188.4 170 185 170 C185 173.3 185 176.6 185 180 C183.35 180 181.7 180 180 180 C180 183.3 180 186.6 180 190 C178.35 190 176.7 190 175 190 C175 193.3 175 196.6 175 200 C173.35 200 171.7 200 170 200 C170 203.3 170 206.6 170 210 C168.35 210 166.7 210 165 210 C165 213.3 165 216.6 165 220 C163.35 220 161.7 220 160 220 C160 223.3 160 226.6 160 230 C156.7 230 153.4 230 150 230 C150 226.7 150 223.4 150 220 C148.35 220 146.7 220 145 220 C145 216.7 145 213.4 145 210 C143.35 210 141.7 210 140 210 C140 206.7 140 203.4 140 200 C138.35 200 136.7 200 135 200 C135 196.7 135 193.4 135 190 C133.35 190 131.7 190 130 190 C130 186.7 130 183.4 130 180 C128.35 180 126.7 180 125 180 C125 176.7 125 173.4 125 170 C121.7 170 118.4 170 115 170 Z " fill="#733B56" transform="translate(45,10)"/>
    <path class="s0" d="M0 0 C4.95 0 9.9 0 15 0 C15 1.65 15 3.3 15 5 C16.65 5 18.3 5 20 5 C20 6.65 20 8.3 20 10 C21.65 10 23.3 10 25 10 C25 14.95 25 19.9 25 25 C23.35 25 21.7 25 20 25 C20 26.65 20 28.3 20 30 C18.35 30 16.7 30 15 30 C15 31.65 15 33.3 15 35 C10.05 35 5.1 35 0 35 C0 33.35 0 31.7 0 30 C-1.65 30 -3.3 30 -5 30 C-5 28.35 -5 26.7 -5 25 C-6.65 25 -8.3 25 -10 25 C-10 20.05 -10 15.1 -10 10 C-8.35 10 -6.7 10 -5 10 C-5 8.35 -5 6.7 -5 5 C-3.35 5 -1.7 5 0 5 C0 3.35 0 1.7 0 0 Z " fill="#733B56" transform="translate(105,40)"/>
</svg>
