<?xml version="1.0" encoding="UTF-8"?>
<svg version="1.1" xmlns="http://www.w3.org/2000/svg" width="512" height="512">
<path d="M0 0 C81.84 0 163.68 0 248 0 C248 5.28 248 10.56 248 16 C245.36 16 242.72 16 240 16 C240 21.28 240 26.56 240 32 C237.36 32 234.72 32 232 32 C232 37.28 232 42.56 232 48 C166 48 100 48 32 48 C32 50.64 32 53.28 32 56 C26.72 56 21.44 56 16 56 C16 58.64 16 61.28 16 64 C13.36 64 10.72 64 8 64 C8 66.64 8 69.28 8 72 C5.36 72 2.72 72 0 72 C0 77.28 0 82.56 0 88 C-2.64 88 -5.28 88 -8 88 C-8 95.92 -8 103.84 -8 112 C-10.64 112 -13.28 112 -16 112 C-16 122.56 -16 133.12 -16 144 C-18.64 144 -21.28 144 -24 144 C-24 154.56 -24 165.12 -24 176 C-2.88 176 18.24 176 40 176 C40 178.64 40 181.28 40 184 C42.64 184 45.28 184 48 184 C48 189.28 48 194.56 48 200 C50.64 200 53.28 200 56 200 C56 202.64 56 205.28 56 208 C58.64 208 61.28 208 64 208 C64 210.64 64 213.28 64 216 C66.64 216 69.28 216 72 216 C72 218.64 72 221.28 72 224 C35.04 224 -1.92 224 -40 224 C-40 231.92 -40 239.84 -40 248 C-42.64 248 -45.28 248 -48 248 C-48 258.56 -48 269.12 -48 280 C-50.64 280 -53.28 280 -56 280 C-56 290.56 -56 301.12 -56 312 C-58.64 312 -61.28 312 -64 312 C-64 322.56 -64 333.12 -64 344 C-66.64 344 -69.28 344 -72 344 C-72 354.56 -72 365.12 -72 376 C-74.64 376 -77.28 376 -80 376 C-80 386.56 -80 397.12 -80 408 C-82.64 408 -85.28 408 -88 408 C-88 413.28 -88 418.56 -88 424 C-106.48 424 -124.96 424 -144 424 C-144 416.08 -144 408.16 -144 400 C-141.36 400 -138.72 400 -136 400 C-136 389.44 -136 378.88 -136 368 C-133.36 368 -130.72 368 -128 368 C-128 357.44 -128 346.88 -128 336 C-125.36 336 -122.72 336 -120 336 C-120 325.44 -120 314.88 -120 304 C-117.36 304 -114.72 304 -112 304 C-112 293.44 -112 282.88 -112 272 C-109.36 272 -106.72 272 -104 272 C-104 261.44 -104 250.88 -104 240 C-101.36 240 -98.72 240 -96 240 C-96 229.44 -96 218.88 -96 208 C-93.36 208 -90.72 208 -88 208 C-88 194.8 -88 181.6 -88 168 C-85.36 168 -82.72 168 -80 168 C-80 157.44 -80 146.88 -80 136 C-77.36 136 -74.72 136 -72 136 C-72 125.44 -72 114.88 -72 104 C-69.36 104 -66.72 104 -64 104 C-64 96.08 -64 88.16 -64 80 C-61.36 80 -58.72 80 -56 80 C-56 74.72 -56 69.44 -56 64 C-53.36 64 -50.72 64 -48 64 C-48 58.72 -48 53.44 -48 48 C-45.36 48 -42.72 48 -40 48 C-40 42.72 -40 37.44 -40 32 C-37.36 32 -34.72 32 -32 32 C-32 29.36 -32 26.72 -32 24 C-29.36 24 -26.72 24 -24 24 C-24 21.36 -24 18.72 -24 16 C-21.36 16 -18.72 16 -16 16 C-16 13.36 -16 10.72 -16 8 C-10.72 8 -5.44 8 0 8 C0 5.36 0 2.72 0 0 Z " fill="#639BFF" transform="translate(176,56)"/>
<path d="M0 0 C18.48 0 36.96 0 56 0 C56 2.64 56 5.28 56 8 C58.64 8 61.28 8 64 8 C64 10.64 64 13.28 64 16 C66.64 16 69.28 16 72 16 C72 21.28 72 26.56 72 32 C74.64 32 77.28 32 80 32 C80 34.64 80 37.28 80 40 C82.64 40 85.28 40 88 40 C88 42.64 88 45.28 88 48 C90.64 48 93.28 48 96 48 C96 53.28 96 58.56 96 64 C98.64 64 101.28 64 104 64 C104 66.64 104 69.28 104 72 C106.64 72 109.28 72 112 72 C112 74.64 112 77.28 112 80 C114.64 80 117.28 80 120 80 C120 82.64 120 85.28 120 88 C125.28 88 130.56 88 136 88 C136 85.36 136 82.72 136 80 C138.64 80 141.28 80 144 80 C144 77.36 144 74.72 144 72 C146.64 72 149.28 72 152 72 C152 69.36 152 66.72 152 64 C154.64 64 157.28 64 160 64 C160 58.72 160 53.44 160 48 C162.64 48 165.28 48 168 48 C168 45.36 168 42.72 168 40 C170.64 40 173.28 40 176 40 C176 37.36 176 34.72 176 32 C178.64 32 181.28 32 184 32 C184 26.72 184 21.44 184 16 C186.64 16 189.28 16 192 16 C192 13.36 192 10.72 192 8 C194.64 8 197.28 8 200 8 C200 5.36 200 2.72 200 0 C218.48 0 236.96 0 256 0 C256 5.28 256 10.56 256 16 C253.36 16 250.72 16 248 16 C248 18.64 248 21.28 248 24 C245.36 24 242.72 24 240 24 C240 29.28 240 34.56 240 40 C237.36 40 234.72 40 232 40 C232 42.64 232 45.28 232 48 C229.36 48 226.72 48 224 48 C224 50.64 224 53.28 224 56 C221.36 56 218.72 56 216 56 C216 61.28 216 66.56 216 72 C213.36 72 210.72 72 208 72 C208 74.64 208 77.28 208 80 C205.36 80 202.72 80 200 80 C200 82.64 200 85.28 200 88 C197.36 88 194.72 88 192 88 C192 90.64 192 93.28 192 96 C189.36 96 186.72 96 184 96 C184 101.28 184 106.56 184 112 C181.36 112 178.72 112 176 112 C176 114.64 176 117.28 176 120 C173.36 120 170.72 120 168 120 C168 122.64 168 125.28 168 128 C165.36 128 162.72 128 160 128 C160 133.28 160 138.56 160 144 C162.64 144 165.28 144 168 144 C168 146.64 168 149.28 168 152 C170.64 152 173.28 152 176 152 C176 154.64 176 157.28 176 160 C178.64 160 181.28 160 184 160 C184 165.28 184 170.56 184 176 C186.64 176 189.28 176 192 176 C192 178.64 192 181.28 192 184 C194.64 184 197.28 184 200 184 C200 186.64 200 189.28 200 192 C202.64 192 205.28 192 208 192 C208 194.64 208 197.28 208 200 C210.64 200 213.28 200 216 200 C216 205.28 216 210.56 216 216 C218.64 216 221.28 216 224 216 C224 218.64 224 221.28 224 224 C226.64 224 229.28 224 232 224 C232 226.64 232 229.28 232 232 C234.64 232 237.28 232 240 232 C240 237.28 240 242.56 240 248 C242.64 248 245.28 248 248 248 C248 250.64 248 253.28 248 256 C250.64 256 253.28 256 256 256 C256 261.28 256 266.56 256 272 C237.52 272 219.04 272 200 272 C200 269.36 200 266.72 200 264 C197.36 264 194.72 264 192 264 C192 261.36 192 258.72 192 256 C189.36 256 186.72 256 184 256 C184 250.72 184 245.44 184 240 C181.36 240 178.72 240 176 240 C176 237.36 176 234.72 176 232 C173.36 232 170.72 232 168 232 C168 229.36 168 226.72 168 224 C165.36 224 162.72 224 160 224 C160 218.72 160 213.44 160 208 C157.36 208 154.72 208 152 208 C152 205.36 152 202.72 152 200 C149.36 200 146.72 200 144 200 C144 197.36 144 194.72 144 192 C141.36 192 138.72 192 136 192 C136 189.36 136 186.72 136 184 C130.72 184 125.44 184 120 184 C120 186.64 120 189.28 120 192 C117.36 192 114.72 192 112 192 C112 194.64 112 197.28 112 200 C109.36 200 106.72 200 104 200 C104 202.64 104 205.28 104 208 C101.36 208 98.72 208 96 208 C96 213.28 96 218.56 96 224 C93.36 224 90.72 224 88 224 C88 226.64 88 229.28 88 232 C85.36 232 82.72 232 80 232 C80 234.64 80 237.28 80 240 C77.36 240 74.72 240 72 240 C72 245.28 72 250.56 72 256 C69.36 256 66.72 256 64 256 C64 258.64 64 261.28 64 264 C61.36 264 58.72 264 56 264 C56 266.64 56 269.28 56 272 C37.52 272 19.04 272 0 272 C0 266.72 0 261.44 0 256 C2.64 256 5.28 256 8 256 C8 253.36 8 250.72 8 248 C10.64 248 13.28 248 16 248 C16 242.72 16 237.44 16 232 C18.64 232 21.28 232 24 232 C24 229.36 24 226.72 24 224 C26.64 224 29.28 224 32 224 C32 221.36 32 218.72 32 216 C34.64 216 37.28 216 40 216 C40 210.72 40 205.44 40 200 C42.64 200 45.28 200 48 200 C48 197.36 48 194.72 48 192 C50.64 192 53.28 192 56 192 C56 189.36 56 186.72 56 184 C58.64 184 61.28 184 64 184 C64 181.36 64 178.72 64 176 C66.64 176 69.28 176 72 176 C72 170.72 72 165.44 72 160 C74.64 160 77.28 160 80 160 C80 157.36 80 154.72 80 152 C82.64 152 85.28 152 88 152 C88 149.36 88 146.72 88 144 C90.64 144 93.28 144 96 144 C96 138.72 96 133.44 96 128 C93.36 128 90.72 128 88 128 C88 125.36 88 122.72 88 120 C85.36 120 82.72 120 80 120 C80 117.36 80 114.72 80 112 C77.36 112 74.72 112 72 112 C72 106.72 72 101.44 72 96 C69.36 96 66.72 96 64 96 C64 93.36 64 90.72 64 88 C61.36 88 58.72 88 56 88 C56 85.36 56 82.72 56 80 C53.36 80 50.72 80 48 80 C48 77.36 48 74.72 48 72 C45.36 72 42.72 72 40 72 C40 66.72 40 61.44 40 56 C37.36 56 34.72 56 32 56 C32 53.36 32 50.72 32 48 C29.36 48 26.72 48 24 48 C24 45.36 24 42.72 24 40 C21.36 40 18.72 40 16 40 C16 34.72 16 29.44 16 24 C13.36 24 10.72 24 8 24 C8 21.36 8 18.72 8 16 C5.36 16 2.72 16 0 16 C0 10.72 0 5.44 0 0 Z " fill="#639BFF" transform="translate(224,208)"/>
</svg>
