<?xml version="1.0" encoding="UTF-8"?>
<svg version="1.1" xmlns="http://www.w3.org/2000/svg" width="512" height="512">
<style>
    .s0 { fill: #F8F9F1 }
</style>
<path class="s0" d="M0 0 C105.6 0 211.2 0 320 0 C320 2.64 320 5.28 320 8 C325.28 8 330.56 8 336 8 C336 10.64 336 13.28 336 16 C338.64 16 341.28 16 344 16 C344 21.28 344 26.56 344 32 C346.64 32 349.28 32 352 32 C352 137.6 352 243.2 352 352 C349.36 352 346.72 352 344 352 C344 357.28 344 362.56 344 368 C341.36 368 338.72 368 336 368 C336 370.64 336 373.28 336 376 C330.72 376 325.44 376 320 376 C320 378.64 320 381.28 320 384 C214.4 384 108.8 384 0 384 C0 381.36 0 378.72 0 376 C-5.28 376 -10.56 376 -16 376 C-16 373.36 -16 370.72 -16 368 C-18.64 368 -21.28 368 -24 368 C-24 362.72 -24 357.44 -24 352 C-26.64 352 -29.28 352 -32 352 C-32 246.4 -32 140.8 -32 32 C-29.36 32 -26.72 32 -24 32 C-24 26.72 -24 21.44 -24 16 C-21.36 16 -18.72 16 -16 16 C-16 13.36 -16 10.72 -16 8 C-10.72 8 -5.44 8 0 8 C0 5.36 0 2.72 0 0 Z M32 80 C32 93.2 32 106.4 32 120 C45.2 120 58.4 120 72 120 C72 106.8 72 93.6 72 80 C58.8 80 45.6 80 32 80 Z M32 136 C32 191.44 32 246.88 32 304 C45.2 304 58.4 304 72 304 C72 248.56 72 193.12 72 136 C58.8 136 45.6 136 32 136 Z M112 136 C112 191.44 112 246.88 112 304 C125.2 304 138.4 304 152 304 C152 274.96 152 245.92 152 216 C154.64 216 157.28 216 160 216 C160 210.72 160 205.44 160 200 C162.64 200 165.28 200 168 200 C168 197.36 168 194.72 168 192 C170.64 192 173.28 192 176 192 C176 189.36 176 186.72 176 184 C183.92 184 191.84 184 200 184 C200 181.36 200 178.72 200 176 C210.56 176 221.12 176 232 176 C232 178.64 232 181.28 232 184 C234.64 184 237.28 184 240 184 C240 189.28 240 194.56 240 200 C242.64 200 245.28 200 248 200 C248 234.32 248 268.64 248 304 C261.2 304 274.4 304 288 304 C288 259.12 288 214.24 288 168 C285.36 168 282.72 168 280 168 C280 162.72 280 157.44 280 152 C277.36 152 274.72 152 272 152 C272 149.36 272 146.72 272 144 C266.72 144 261.44 144 256 144 C256 141.36 256 138.72 256 136 C234.88 136 213.76 136 192 136 C192 138.64 192 141.28 192 144 C184.08 144 176.16 144 168 144 C168 146.64 168 149.28 168 152 C165.36 152 162.72 152 160 152 C160 154.64 160 157.28 160 160 C157.36 160 154.72 160 152 160 C152 152.08 152 144.16 152 136 C138.8 136 125.6 136 112 136 Z " transform="translate(96,64)"/>
</svg>
