<svg version="1.2" xmlns="http://www.w3.org/2000/svg" viewBox="0 0 512 512" width="512" height="512">
	<title>Placeholder</title>
	<style>
		.s0 { fill: #000000 } 
		.s1 { fill: #ffffff } 
	</style>
	<g id="Background">
		<path id="Border" class="s0" d="m0 256v256h512v-512h-512z"/>
		<path id="Background" class="s1" d="m32 256v224h448v-448h-448z"/>
		<path id="Image" class="s0" d="m120 68v4h-16v8h-8v8h-8v16h-8v48h8v16h8v8h8v8h16v8h48v-8h16v-8h8v-8h8v-16h8v-48h-8v-16h-8v-8h-8v-8h-16v-8h-48zm216 84v8h-16v16h-16v32h-16v16h-16v32h-16v16h-16v32h-16v16h-32v-16h-16v-8h-16v-16h-64v16h-16v16h-16v16h-16v136h416v-224h-16v-32h-16v-32h-16v-16h-16v-16h-64z"/>
	</g>
</svg>