<svg version="1.1" xmlns="http://www.w3.org/2000/svg" width="512" height="512">
    <title>Work</title>
    <style>
        .s0 { fill: #733B56 }
        .s1 { fill: #f8f9f1 }
    </style>
    <path class="s1" d="M0 0 C68.64 0 137.28 0 208 0 C208 2.64 208 5.28 208 8 C213.28 8 218.56 8 224 8 C224 13.28 224 18.56 224 24 C226.64 24 229.28 24 232 24 C232 45.12 232 66.24 232 88 C261.04 88 290.08 88 320 88 C320 90.64 320 93.28 320 96 C322.64 96 325.28 96 328 96 C328 98.64 328 101.28 328 104 C330.64 104 333.28 104 336 104 C336 125.12 336 146.24 336 168 C330.72 168 325.44 168 320 168 C320 173.28 320 178.56 320 184 C325.28 184 330.56 184 336 184 C336 255.28 336 326.56 336 400 C333.36 400 330.72 400 328 400 C328 402.64 328 405.28 328 408 C325.36 408 322.72 408 320 408 C320 410.64 320 413.28 320 416 C177.44 416 34.88 416 -112 416 C-112 413.36 -112 410.72 -112 408 C-114.64 408 -117.28 408 -120 408 C-120 405.36 -120 402.72 -120 400 C-122.64 400 -125.28 400 -128 400 C-128 328.72 -128 257.44 -128 184 C-122.72 184 -117.44 184 -112 184 C-112 178.72 -112 173.44 -112 168 C-117.28 168 -122.56 168 -128 168 C-128 146.88 -128 125.76 -128 104 C-125.36 104 -122.72 104 -120 104 C-120 101.36 -120 98.72 -120 96 C-117.36 96 -114.72 96 -112 96 C-112 93.36 -112 90.72 -112 88 C-82.96 88 -53.92 88 -24 88 C-24 66.88 -24 45.76 -24 24 C-21.36 24 -18.72 24 -16 24 C-16 18.72 -16 13.44 -16 8 C-10.72 8 -5.44 8 0 8 C0 5.36 0 2.72 0 0 Z M16 32 C16 34.64 16 37.28 16 40 C13.36 40 10.72 40 8 40 C8 55.84 8 71.68 8 88 C71.36 88 134.72 88 200 88 C200 72.16 200 56.32 200 40 C197.36 40 194.72 40 192 40 C192 37.36 192 34.72 192 32 C133.92 32 75.84 32 16 32 Z M-112 184 C-112 189.28 -112 194.56 -112 200 C-101.44 200 -90.88 200 -80 200 C-80 194.72 -80 189.44 -80 184 C-90.56 184 -101.12 184 -112 184 Z M288 184 C288 189.28 288 194.56 288 200 C298.56 200 309.12 200 320 200 C320 194.72 320 189.44 320 184 C309.44 184 298.88 184 288 184 Z M-80 200 C-80 205.28 -80 210.56 -80 216 C-69.44 216 -58.88 216 -48 216 C-48 210.72 -48 205.44 -48 200 C-58.56 200 -69.12 200 -80 200 Z M256 200 C256 205.28 256 210.56 256 216 C266.56 216 277.12 216 288 216 C288 210.72 288 205.44 288 200 C277.44 200 266.88 200 256 200 Z M-48 216 C-48 221.28 -48 226.56 -48 232 C-37.44 232 -26.88 232 -16 232 C-16 226.72 -16 221.44 -16 216 C-26.56 216 -37.12 216 -48 216 Z M224 216 C224 221.28 224 226.56 224 232 C234.56 232 245.12 232 256 232 C256 226.72 256 221.44 256 216 C245.44 216 234.88 216 224 216 Z M-16 232 C-16 237.28 -16 242.56 -16 248 C15.68 248 47.36 248 80 248 C80 242.72 80 237.44 80 232 C48.32 232 16.64 232 -16 232 Z M128 232 C128 237.28 128 242.56 128 248 C159.68 248 191.36 248 224 248 C224 242.72 224 237.44 224 232 C192.32 232 160.64 232 128 232 Z " fill="#F8F9F1" transform="translate(152,24)"/>
    <path class="s1" d="M0 0 C68.64 0 137.28 0 208 0 C208 2.64 208 5.28 208 8 C213.28 8 218.56 8 224 8 C224 13.28 224 18.56 224 24 C226.64 24 229.28 24 232 24 C232 45.12 232 66.24 232 88 C261.04 88 290.08 88 320 88 C320 90.64 320 93.28 320 96 C322.64 96 325.28 96 328 96 C328 98.64 328 101.28 328 104 C330.64 104 333.28 104 336 104 C336 125.12 336 146.24 336 168 C330.72 168 325.44 168 320 168 C320 173.28 320 178.56 320 184 C309.44 184 298.88 184 288 184 C288 189.28 288 194.56 288 200 C277.44 200 266.88 200 256 200 C256 205.28 256 210.56 256 216 C245.44 216 234.88 216 224 216 C224 221.28 224 226.56 224 232 C192.32 232 160.64 232 128 232 C128 242.56 128 253.12 128 264 C125.36 264 122.72 264 120 264 C120 266.64 120 269.28 120 272 C109.44 272 98.88 272 88 272 C88 269.36 88 266.72 88 264 C85.36 264 82.72 264 80 264 C80 253.44 80 242.88 80 232 C48.32 232 16.64 232 -16 232 C-16 226.72 -16 221.44 -16 216 C-26.56 216 -37.12 216 -48 216 C-48 210.72 -48 205.44 -48 200 C-58.56 200 -69.12 200 -80 200 C-80 194.72 -80 189.44 -80 184 C-90.56 184 -101.12 184 -112 184 C-112 178.72 -112 173.44 -112 168 C-117.28 168 -122.56 168 -128 168 C-128 146.88 -128 125.76 -128 104 C-125.36 104 -122.72 104 -120 104 C-120 101.36 -120 98.72 -120 96 C-117.36 96 -114.72 96 -112 96 C-112 93.36 -112 90.72 -112 88 C-82.96 88 -53.92 88 -24 88 C-24 66.88 -24 45.76 -24 24 C-21.36 24 -18.72 24 -16 24 C-16 18.72 -16 13.44 -16 8 C-10.72 8 -5.44 8 0 8 C0 5.36 0 2.72 0 0 Z M16 32 C16 34.64 16 37.28 16 40 C13.36 40 10.72 40 8 40 C8 55.84 8 71.68 8 88 C71.36 88 134.72 88 200 88 C200 72.16 200 56.32 200 40 C197.36 40 194.72 40 192 40 C192 37.36 192 34.72 192 32 C133.92 32 75.84 32 16 32 Z " fill="#F8F9F1" transform="translate(152,24)"/>
    <path class="s0" d="M0 0 C15.84 0 31.68 0 48 0 C48 15.84 48 31.68 48 48 C45.36 48 42.72 48 40 48 C40 50.64 40 53.28 40 56 C29.44 56 18.88 56 8 56 C8 53.36 8 50.72 8 48 C5.36 48 2.72 48 0 48 C0 32.16 0 16.32 0 0 Z " fill="#733B56" transform="translate(232,240)"/>
</svg>
