<?xml version="1.0" encoding="UTF-8"?>
<svg version="1.1" xmlns="http://www.w3.org/2000/svg" width="320" height="320">
<style>
    .s0 { fill: #F8F9F1 }
</style>
<path class="s0" d="M0 0 C16.5 0 33 0 50 0 C50 1.65 50 3.3 50 5 C53.3 5 56.6 5 60 5 C60 6.65 60 8.3 60 10 C63.3 10 66.6 10 70 10 C70 11.65 70 13.3 70 15 C73.3 15 76.6 15 80 15 C80 16.65 80 18.3 80 20 C81.65 20 83.3 20 85 20 C85 21.65 85 23.3 85 25 C86.65 25 88.3 25 90 25 C90 26.65 90 28.3 90 30 C91.65 30 93.3 30 95 30 C95 31.65 95 33.3 95 35 C96.65 35 98.3 35 100 35 C100 38.3 100 41.6 100 45 C101.65 45 103.3 45 105 45 C105 48.3 105 51.6 105 55 C106.65 55 108.3 55 110 55 C110 58.3 110 61.6 110 65 C111.65 65 113.3 65 115 65 C115 83.15 115 101.3 115 120 C113.35 120 111.7 120 110 120 C110 123.3 110 126.6 110 130 C108.35 130 106.7 130 105 130 C105 133.3 105 136.6 105 140 C103.35 140 101.7 140 100 140 C100 143.3 100 146.6 100 150 C98.35 150 96.7 150 95 150 C95 153.3 95 156.6 95 160 C93.35 160 91.7 160 90 160 C90 163.3 90 166.6 90 170 C88.35 170 86.7 170 85 170 C85 173.3 85 176.6 85 180 C83.35 180 81.7 180 80 180 C80 183.3 80 186.6 80 190 C78.35 190 76.7 190 75 190 C75 193.3 75 196.6 75 200 C73.35 200 71.7 200 70 200 C70 203.3 70 206.6 70 210 C68.35 210 66.7 210 65 210 C65 213.3 65 216.6 65 220 C63.35 220 61.7 220 60 220 C60 223.3 60 226.6 60 230 C58.35 230 56.7 230 55 230 C55 233.3 55 236.6 55 240 C53.35 240 51.7 240 50 240 C50 243.3 50 246.6 50 250 C48.35 250 46.7 250 45 250 C45 253.3 45 256.6 45 260 C43.35 260 41.7 260 40 260 C40 263.3 40 266.6 40 270 C38.35 270 36.7 270 35 270 C35 273.3 35 276.6 35 280 C33.35 280 31.7 280 30 280 C30 281.65 30 283.3 30 285 C26.7 285 23.4 285 20 285 C20 283.35 20 281.7 20 280 C18.35 280 16.7 280 15 280 C15 276.7 15 273.4 15 270 C13.35 270 11.7 270 10 270 C10 266.7 10 263.4 10 260 C8.35 260 6.7 260 5 260 C5 256.7 5 253.4 5 250 C3.35 250 1.7 250 0 250 C0 246.7 0 243.4 0 240 C-1.65 240 -3.3 240 -5 240 C-5 236.7 -5 233.4 -5 230 C-6.65 230 -8.3 230 -10 230 C-10 226.7 -10 223.4 -10 220 C-11.65 220 -13.3 220 -15 220 C-15 216.7 -15 213.4 -15 210 C-16.65 210 -18.3 210 -20 210 C-20 206.7 -20 203.4 -20 200 C-21.65 200 -23.3 200 -25 200 C-25 196.7 -25 193.4 -25 190 C-26.65 190 -28.3 190 -30 190 C-30 186.7 -30 183.4 -30 180 C-31.65 180 -33.3 180 -35 180 C-35 176.7 -35 173.4 -35 170 C-36.65 170 -38.3 170 -40 170 C-40 166.7 -40 163.4 -40 160 C-41.65 160 -43.3 160 -45 160 C-45 156.7 -45 153.4 -45 150 C-46.65 150 -48.3 150 -50 150 C-50 146.7 -50 143.4 -50 140 C-51.65 140 -53.3 140 -55 140 C-55 136.7 -55 133.4 -55 130 C-56.65 130 -58.3 130 -60 130 C-60 126.7 -60 123.4 -60 120 C-61.65 120 -63.3 120 -65 120 C-65 101.85 -65 83.7 -65 65 C-63.35 65 -61.7 65 -60 65 C-60 61.7 -60 58.4 -60 55 C-58.35 55 -56.7 55 -55 55 C-55 51.7 -55 48.4 -55 45 C-53.35 45 -51.7 45 -50 45 C-50 41.7 -50 38.4 -50 35 C-48.35 35 -46.7 35 -45 35 C-45 33.35 -45 31.7 -45 30 C-43.35 30 -41.7 30 -40 30 C-40 28.35 -40 26.7 -40 25 C-38.35 25 -36.7 25 -35 25 C-35 23.35 -35 21.7 -35 20 C-33.35 20 -31.7 20 -30 20 C-30 18.35 -30 16.7 -30 15 C-26.7 15 -23.4 15 -20 15 C-20 13.35 -20 11.7 -20 10 C-16.7 10 -13.4 10 -10 10 C-10 8.35 -10 6.7 -10 5 C-6.7 5 -3.4 5 0 5 C0 3.35 0 1.7 0 0 Z M15 55 C15 56.65 15 58.3 15 60 C11.7 60 8.4 60 5 60 C5 61.65 5 63.3 5 65 C3.35 65 1.7 65 0 65 C0 66.65 0 68.3 0 70 C-1.65 70 -3.3 70 -5 70 C-5 73.3 -5 76.6 -5 80 C-6.65 80 -8.3 80 -10 80 C-10 86.6 -10 93.2 -10 100 C-8.35 100 -6.7 100 -5 100 C-5 103.3 -5 106.6 -5 110 C-3.35 110 -1.7 110 0 110 C0 111.65 0 113.3 0 115 C1.65 115 3.3 115 5 115 C5 116.65 5 118.3 5 120 C8.3 120 11.6 120 15 120 C15 121.65 15 123.3 15 125 C21.6 125 28.2 125 35 125 C35 123.35 35 121.7 35 120 C38.3 120 41.6 120 45 120 C45 118.35 45 116.7 45 115 C46.65 115 48.3 115 50 115 C50 113.35 50 111.7 50 110 C51.65 110 53.3 110 55 110 C55 106.7 55 103.4 55 100 C56.65 100 58.3 100 60 100 C60 93.4 60 86.8 60 80 C58.35 80 56.7 80 55 80 C55 76.7 55 73.4 55 70 C53.35 70 51.7 70 50 70 C50 68.35 50 66.7 50 65 C48.35 65 46.7 65 45 65 C45 63.35 45 61.7 45 60 C41.7 60 38.4 60 35 60 C35 58.35 35 56.7 35 55 C28.4 55 21.8 55 15 55 Z " transform="translate(135,5)"/>
</svg>
