<?xml version="1.0" encoding="UTF-8"?>
<svg version="1.1" xmlns="http://www.w3.org/2000/svg" width="320" height="320">
<path d="M0 0 C99 0 198 0 300 0 C300 41.25 300 82.5 300 125 C201 125 102 125 0 125 C0 83.75 0 42.5 0 0 Z " fill="#99E550" transform="translate(10,195)"/>
<path d="M0 0 C46.2 0 92.4 0 140 0 C140 6.6 140 13.2 140 20 C146.6 20 153.2 20 160 20 C160 26.6 160 33.2 160 40 C173.2 40 186.4 40 200 40 C200 53.2 200 66.4 200 80 C206.6 80 213.2 80 220 80 C220 96.5 220 113 220 130 C121 130 22 130 -80 130 C-80 113.5 -80 97 -80 80 C-73.4 80 -66.8 80 -60 80 C-60 66.8 -60 53.6 -60 40 C-46.8 40 -33.6 40 -20 40 C-20 33.4 -20 26.8 -20 20 C-13.4 20 -6.8 20 0 20 C0 13.4 0 6.8 0 0 Z M0 65 C0 71.6 0 78.2 0 85 C6.6 85 13.2 85 20 85 C20 78.4 20 71.8 20 65 C13.4 65 6.8 65 0 65 Z M120 65 C120 71.6 120 78.2 120 85 C126.6 85 133.2 85 140 85 C140 78.4 140 71.8 140 65 C133.4 65 126.8 65 120 65 Z " fill="#99E550" transform="translate(90,40)"/>
<path d="M0 0 C6.6 0 13.2 0 20 0 C20 6.6 20 13.2 20 20 C13.4 20 6.8 20 0 20 C0 13.4 0 6.8 0 0 Z " fill="#99E550" transform="translate(250,40)"/>
<path d="M0 0 C6.6 0 13.2 0 20 0 C20 6.6 20 13.2 20 20 C13.4 20 6.8 20 0 20 C0 13.4 0 6.8 0 0 Z " fill="#99E550" transform="translate(50,40)"/>
<path d="M0 0 C6.6 0 13.2 0 20 0 C20 6.6 20 13.2 20 20 C13.4 20 6.8 20 0 20 C0 13.4 0 6.8 0 0 Z " fill="#99E550" transform="translate(270,20)"/>
<path d="M0 0 C6.6 0 13.2 0 20 0 C20 6.6 20 13.2 20 20 C13.4 20 6.8 20 0 20 C0 13.4 0 6.8 0 0 Z " fill="#99E550" transform="translate(30,20)"/>
</svg>
