<?xml version="1.0" encoding="UTF-8"?>
<svg version="1.1" xmlns="http://www.w3.org/2000/svg" width="320" height="320">
<path d="M0 0 C13.2 0 26.4 0 40 0 C40 1.65 40 3.3 40 5 C43.3 5 46.6 5 50 5 C50 6.65 50 8.3 50 10 C51.65 10 53.3 10 55 10 C55 11.65 55 13.3 55 15 C56.65 15 58.3 15 60 15 C60 16.65 60 18.3 60 20 C61.65 20 63.3 20 65 20 C65 21.65 65 23.3 65 25 C66.65 25 68.3 25 70 25 C70 26.65 70 28.3 70 30 C71.65 30 73.3 30 75 30 C75 34.95 75 39.9 75 45 C68.4 45 61.8 45 55 45 C55 41.7 55 38.4 55 35 C53.35 35 51.7 35 50 35 C50 33.35 50 31.7 50 30 C48.35 30 46.7 30 45 30 C45 28.35 45 26.7 45 25 C41.7 25 38.4 25 35 25 C35 23.35 35 21.7 35 20 C25.1 20 15.2 20 5 20 C5 21.65 5 23.3 5 25 C1.7 25 -1.6 25 -5 25 C-5 26.65 -5 28.3 -5 30 C-6.65 30 -8.3 30 -10 30 C-10 31.65 -10 33.3 -10 35 C-11.65 35 -13.3 35 -15 35 C-15 38.3 -15 41.6 -15 45 C-16.65 45 -18.3 45 -20 45 C-20 54.9 -20 64.8 -20 75 C-18.35 75 -16.7 75 -15 75 C-15 78.3 -15 81.6 -15 85 C-13.35 85 -11.7 85 -10 85 C-10 86.65 -10 88.3 -10 90 C-8.35 90 -6.7 90 -5 90 C-5 91.65 -5 93.3 -5 95 C-1.7 95 1.6 95 5 95 C5 96.65 5 98.3 5 100 C14.9 100 24.8 100 35 100 C35 98.35 35 96.7 35 95 C38.3 95 41.6 95 45 95 C45 93.35 45 91.7 45 90 C46.65 90 48.3 90 50 90 C50 88.35 50 86.7 50 85 C51.65 85 53.3 85 55 85 C55 81.7 55 78.4 55 75 C56.65 75 58.3 75 60 75 C60 73.35 60 71.7 60 70 C46.8 70 33.6 70 20 70 C20 65.05 20 60.1 20 55 C39.8 55 59.6 55 80 55 C80 63.25 80 71.5 80 80 C78.35 80 76.7 80 75 80 C75 83.3 75 86.6 75 90 C73.35 90 71.7 90 70 90 C70 91.65 70 93.3 70 95 C68.35 95 66.7 95 65 95 C65 96.65 65 98.3 65 100 C63.35 100 61.7 100 60 100 C60 101.65 60 103.3 60 105 C58.35 105 56.7 105 55 105 C55 106.65 55 108.3 55 110 C53.35 110 51.7 110 50 110 C50 111.65 50 113.3 50 115 C46.7 115 43.4 115 40 115 C40 116.65 40 118.3 40 120 C26.8 120 13.6 120 0 120 C0 118.35 0 116.7 0 115 C-3.3 115 -6.6 115 -10 115 C-10 113.35 -10 111.7 -10 110 C-11.65 110 -13.3 110 -15 110 C-15 108.35 -15 106.7 -15 105 C-16.65 105 -18.3 105 -20 105 C-20 103.35 -20 101.7 -20 100 C-21.65 100 -23.3 100 -25 100 C-25 98.35 -25 96.7 -25 95 C-26.65 95 -28.3 95 -30 95 C-30 93.35 -30 91.7 -30 90 C-31.65 90 -33.3 90 -35 90 C-35 86.7 -35 83.4 -35 80 C-36.65 80 -38.3 80 -40 80 C-40 66.8 -40 53.6 -40 40 C-38.35 40 -36.7 40 -35 40 C-35 36.7 -35 33.4 -35 30 C-33.35 30 -31.7 30 -30 30 C-30 28.35 -30 26.7 -30 25 C-28.35 25 -26.7 25 -25 25 C-25 23.35 -25 21.7 -25 20 C-23.35 20 -21.7 20 -20 20 C-20 18.35 -20 16.7 -20 15 C-18.35 15 -16.7 15 -15 15 C-15 13.35 -15 11.7 -15 10 C-13.35 10 -11.7 10 -10 10 C-10 8.35 -10 6.7 -10 5 C-6.7 5 -3.4 5 0 5 C0 3.35 0 1.7 0 0 Z " fill="#41B2DC" transform="translate(100,115)"/>
<path d="M0 0 C13.2 0 26.4 0 40 0 C40 1.65 40 3.3 40 5 C43.3 5 46.6 5 50 5 C50 6.65 50 8.3 50 10 C51.65 10 53.3 10 55 10 C55 11.65 55 13.3 55 15 C56.65 15 58.3 15 60 15 C60 16.65 60 18.3 60 20 C61.65 20 63.3 20 65 20 C65 21.65 65 23.3 65 25 C66.65 25 68.3 25 70 25 C70 26.65 70 28.3 70 30 C71.65 30 73.3 30 75 30 C75 33.3 75 36.6 75 40 C76.65 40 78.3 40 80 40 C80 53.2 80 66.4 80 80 C78.35 80 76.7 80 75 80 C75 83.3 75 86.6 75 90 C73.35 90 71.7 90 70 90 C70 91.65 70 93.3 70 95 C68.35 95 66.7 95 65 95 C65 96.65 65 98.3 65 100 C63.35 100 61.7 100 60 100 C60 101.65 60 103.3 60 105 C58.35 105 56.7 105 55 105 C55 106.65 55 108.3 55 110 C53.35 110 51.7 110 50 110 C50 111.65 50 113.3 50 115 C46.7 115 43.4 115 40 115 C40 116.65 40 118.3 40 120 C26.8 120 13.6 120 0 120 C0 118.35 0 116.7 0 115 C-3.3 115 -6.6 115 -10 115 C-10 113.35 -10 111.7 -10 110 C-11.65 110 -13.3 110 -15 110 C-15 108.35 -15 106.7 -15 105 C-16.65 105 -18.3 105 -20 105 C-20 103.35 -20 101.7 -20 100 C-21.65 100 -23.3 100 -25 100 C-25 98.35 -25 96.7 -25 95 C-26.65 95 -28.3 95 -30 95 C-30 93.35 -30 91.7 -30 90 C-31.65 90 -33.3 90 -35 90 C-35 86.7 -35 83.4 -35 80 C-36.65 80 -38.3 80 -40 80 C-40 66.8 -40 53.6 -40 40 C-38.35 40 -36.7 40 -35 40 C-35 36.7 -35 33.4 -35 30 C-33.35 30 -31.7 30 -30 30 C-30 28.35 -30 26.7 -30 25 C-28.35 25 -26.7 25 -25 25 C-25 23.35 -25 21.7 -25 20 C-23.35 20 -21.7 20 -20 20 C-20 18.35 -20 16.7 -20 15 C-18.35 15 -16.7 15 -15 15 C-15 13.35 -15 11.7 -15 10 C-13.35 10 -11.7 10 -10 10 C-10 8.35 -10 6.7 -10 5 C-6.7 5 -3.4 5 0 5 C0 3.35 0 1.7 0 0 Z M5 20 C5 21.65 5 23.3 5 25 C1.7 25 -1.6 25 -5 25 C-5 26.65 -5 28.3 -5 30 C-6.65 30 -8.3 30 -10 30 C-10 31.65 -10 33.3 -10 35 C-11.65 35 -13.3 35 -15 35 C-15 38.3 -15 41.6 -15 45 C-16.65 45 -18.3 45 -20 45 C-20 54.9 -20 64.8 -20 75 C-18.35 75 -16.7 75 -15 75 C-15 78.3 -15 81.6 -15 85 C-13.35 85 -11.7 85 -10 85 C-10 86.65 -10 88.3 -10 90 C-8.35 90 -6.7 90 -5 90 C-5 91.65 -5 93.3 -5 95 C-1.7 95 1.6 95 5 95 C5 96.65 5 98.3 5 100 C14.9 100 24.8 100 35 100 C35 98.35 35 96.7 35 95 C38.3 95 41.6 95 45 95 C45 93.35 45 91.7 45 90 C46.65 90 48.3 90 50 90 C50 88.35 50 86.7 50 85 C51.65 85 53.3 85 55 85 C55 81.7 55 78.4 55 75 C56.65 75 58.3 75 60 75 C60 65.1 60 55.2 60 45 C58.35 45 56.7 45 55 45 C55 41.7 55 38.4 55 35 C53.35 35 51.7 35 50 35 C50 33.35 50 31.7 50 30 C48.35 30 46.7 30 45 30 C45 28.35 45 26.7 45 25 C41.7 25 38.4 25 35 25 C35 23.35 35 21.7 35 20 C25.1 20 15.2 20 5 20 Z " fill="#41B2DC" transform="translate(230,110)"/>
<path d="M0 0 C19.8 0 39.6 0 60 0 C60 1.65 60 3.3 60 5 C58.35 5 56.7 5 55 5 C55 8.3 55 11.6 55 15 C36.85 15 18.7 15 0 15 C0 10.05 0 5.1 0 0 Z " fill="#41B2DC" transform="translate(5,135)"/>
<path d="M0 0 C18.15 0 36.3 0 55 0 C55 4.95 55 9.9 55 15 C36.85 15 18.7 15 0 15 C0 10.05 0 5.1 0 0 Z " fill="#41B2DC" transform="translate(0,165)"/>
<path d="M0 0 C11.55 0 23.1 0 35 0 C35 1.65 35 3.3 35 5 C36.65 5 38.3 5 40 5 C40 8.3 40 11.6 40 15 C26.8 15 13.6 15 0 15 C0 10.05 0 5.1 0 0 Z " fill="#41B2DC" transform="translate(20,195)"/>
</svg>
