<?xml version="1.0" encoding="UTF-8"?>
<svg version="1.1" xmlns="http://www.w3.org/2000/svg" width="512" height="512">
<path d="M0 0 C31.68 0 63.36 0 96 0 C96 2.64 96 5.28 96 8 C106.56 8 117.12 8 128 8 C128 10.64 128 13.28 128 16 C135.92 16 143.84 16 152 16 C152 18.64 152 21.28 152 24 C157.28 24 162.56 24 168 24 C168 26.64 168 29.28 168 32 C173.28 32 178.56 32 184 32 C184 34.64 184 37.28 184 40 C186.64 40 189.28 40 192 40 C192 42.64 192 45.28 192 48 C194.64 48 197.28 48 200 48 C200 50.64 200 53.28 200 56 C205.28 56 210.56 56 216 56 C216 58.64 216 61.28 216 64 C218.64 64 221.28 64 224 64 C224 66.64 224 69.28 224 72 C226.64 72 229.28 72 232 72 C232 74.64 232 77.28 232 80 C234.64 80 237.28 80 240 80 C240 82.64 240 85.28 240 88 C242.64 88 245.28 88 248 88 C248 93.28 248 98.56 248 104 C250.64 104 253.28 104 256 104 C256 106.64 256 109.28 256 112 C258.64 112 261.28 112 264 112 C264 114.64 264 117.28 264 120 C266.64 120 269.28 120 272 120 C272 125.28 272 130.56 272 136 C274.64 136 277.28 136 280 136 C280 141.28 280 146.56 280 152 C282.64 152 285.28 152 288 152 C288 159.92 288 167.84 288 176 C290.64 176 293.28 176 296 176 C296 186.56 296 197.12 296 208 C298.64 208 301.28 208 304 208 C304 239.68 304 271.36 304 304 C301.36 304 298.72 304 296 304 C296 314.56 296 325.12 296 336 C293.36 336 290.72 336 288 336 C288 343.92 288 351.84 288 360 C285.36 360 282.72 360 280 360 C280 365.28 280 370.56 280 376 C277.36 376 274.72 376 272 376 C272 381.28 272 386.56 272 392 C269.36 392 266.72 392 264 392 C264 394.64 264 397.28 264 400 C261.36 400 258.72 400 256 400 C256 402.64 256 405.28 256 408 C253.36 408 250.72 408 248 408 C248 413.28 248 418.56 248 424 C245.36 424 242.72 424 240 424 C240 426.64 240 429.28 240 432 C237.36 432 234.72 432 232 432 C232 434.64 232 437.28 232 440 C229.36 440 226.72 440 224 440 C224 442.64 224 445.28 224 448 C221.36 448 218.72 448 216 448 C216 450.64 216 453.28 216 456 C210.72 456 205.44 456 200 456 C200 458.64 200 461.28 200 464 C197.36 464 194.72 464 192 464 C192 466.64 192 469.28 192 472 C189.36 472 186.72 472 184 472 C184 474.64 184 477.28 184 480 C178.72 480 173.44 480 168 480 C168 482.64 168 485.28 168 488 C162.72 488 157.44 488 152 488 C152 490.64 152 493.28 152 496 C144.08 496 136.16 496 128 496 C128 498.64 128 501.28 128 504 C117.44 504 106.88 504 96 504 C96 506.64 96 509.28 96 512 C64.32 512 32.64 512 0 512 C0 509.36 0 506.72 0 504 C-10.56 504 -21.12 504 -32 504 C-32 501.36 -32 498.72 -32 496 C-39.92 496 -47.84 496 -56 496 C-56 493.36 -56 490.72 -56 488 C-61.28 488 -66.56 488 -72 488 C-72 485.36 -72 482.72 -72 480 C-77.28 480 -82.56 480 -88 480 C-88 477.36 -88 474.72 -88 472 C-90.64 472 -93.28 472 -96 472 C-96 469.36 -96 466.72 -96 464 C-98.64 464 -101.28 464 -104 464 C-104 461.36 -104 458.72 -104 456 C-109.28 456 -114.56 456 -120 456 C-120 453.36 -120 450.72 -120 448 C-130.56 448 -141.12 448 -152 448 C-152 445.36 -152 442.72 -152 440 C-162.56 440 -173.12 440 -184 440 C-184 437.36 -184 434.72 -184 432 C-186.64 432 -189.28 432 -192 432 C-192 429.36 -192 426.72 -192 424 C-194.64 424 -197.28 424 -200 424 C-200 418.72 -200 413.44 -200 408 C-197.36 408 -194.72 408 -192 408 C-192 405.36 -192 402.72 -192 400 C-189.36 400 -186.72 400 -184 400 C-184 397.36 -184 394.72 -184 392 C-181.36 392 -178.72 392 -176 392 C-176 386.72 -176 381.44 -176 376 C-178.64 376 -181.28 376 -184 376 C-184 370.72 -184 365.44 -184 360 C-186.64 360 -189.28 360 -192 360 C-192 352.08 -192 344.16 -192 336 C-194.64 336 -197.28 336 -200 336 C-200 325.44 -200 314.88 -200 304 C-202.64 304 -205.28 304 -208 304 C-208 272.32 -208 240.64 -208 208 C-205.36 208 -202.72 208 -200 208 C-200 197.44 -200 186.88 -200 176 C-197.36 176 -194.72 176 -192 176 C-192 168.08 -192 160.16 -192 152 C-189.36 152 -186.72 152 -184 152 C-184 146.72 -184 141.44 -184 136 C-181.36 136 -178.72 136 -176 136 C-176 130.72 -176 125.44 -176 120 C-173.36 120 -170.72 120 -168 120 C-168 117.36 -168 114.72 -168 112 C-165.36 112 -162.72 112 -160 112 C-160 109.36 -160 106.72 -160 104 C-157.36 104 -154.72 104 -152 104 C-152 98.72 -152 93.44 -152 88 C-149.36 88 -146.72 88 -144 88 C-144 85.36 -144 82.72 -144 80 C-141.36 80 -138.72 80 -136 80 C-136 77.36 -136 74.72 -136 72 C-133.36 72 -130.72 72 -128 72 C-128 69.36 -128 66.72 -128 64 C-125.36 64 -122.72 64 -120 64 C-120 61.36 -120 58.72 -120 56 C-114.72 56 -109.44 56 -104 56 C-104 53.36 -104 50.72 -104 48 C-101.36 48 -98.72 48 -96 48 C-96 45.36 -96 42.72 -96 40 C-93.36 40 -90.72 40 -88 40 C-88 37.36 -88 34.72 -88 32 C-82.72 32 -77.44 32 -72 32 C-72 29.36 -72 26.72 -72 24 C-66.72 24 -61.44 24 -56 24 C-56 21.36 -56 18.72 -56 16 C-48.08 16 -40.16 16 -32 16 C-32 13.36 -32 10.72 -32 8 C-21.44 8 -10.88 8 0 8 C0 5.36 0 2.72 0 0 Z M-176 408 C-176 413.28 -176 418.56 -176 424 C-168.08 424 -160.16 424 -152 424 C-152 418.72 -152 413.44 -152 408 C-159.92 408 -167.84 408 -176 408 Z " fill="#FFFFFF" transform="translate(208,0)"/>
<path d="M0 0 C7.92 0 15.84 0 24 0 C24 2.64 24 5.28 24 8 C21.36 8 18.72 8 16 8 C16 10.64 16 13.28 16 16 C10.72 16 5.44 16 0 16 C0 18.64 0 21.28 0 24 C-2.64 24 -5.28 24 -8 24 C-8 26.64 -8 29.28 -8 32 C-10.64 32 -13.28 32 -16 32 C-16 34.64 -16 37.28 -16 40 C-21.28 40 -26.56 40 -32 40 C-32 42.64 -32 45.28 -32 48 C-37.28 48 -42.56 48 -48 48 C-48 50.64 -48 53.28 -48 56 C-55.92 56 -63.84 56 -72 56 C-72 58.64 -72 61.28 -72 64 C-82.56 64 -93.12 64 -104 64 C-104 66.64 -104 69.28 -104 72 C-135.68 72 -167.36 72 -200 72 C-200 69.36 -200 66.72 -200 64 C-210.56 64 -221.12 64 -232 64 C-232 61.36 -232 58.72 -232 56 C-239.92 56 -247.84 56 -256 56 C-256 53.36 -256 50.72 -256 48 C-261.28 48 -266.56 48 -272 48 C-272 45.36 -272 42.72 -272 40 C-277.28 40 -282.56 40 -288 40 C-288 37.36 -288 34.72 -288 32 C-290.64 32 -293.28 32 -296 32 C-296 29.36 -296 26.72 -296 24 C-298.64 24 -301.28 24 -304 24 C-304 21.36 -304 18.72 -304 16 C-309.28 16 -314.56 16 -320 16 C-320 13.36 -320 10.72 -320 8 C-309.44 8 -298.88 8 -288 8 C-288 10.64 -288 13.28 -288 16 C-214.08 16 -140.16 16 -64 16 C-64 13.36 -64 10.72 -64 8 C-42.88 8 -21.76 8 0 8 C0 5.36 0 2.72 0 0 Z " fill="#FFFFFF" transform="translate(408,440)"/>
<path d="M0 0 C10.56 0 21.12 0 32 0 C32 2.64 32 5.28 32 8 C29.36 8 26.72 8 24 8 C24 10.64 24 13.28 24 16 C18.72 16 13.44 16 8 16 C8 21.28 8 26.56 8 32 C18.56 32 29.12 32 40 32 C40 34.64 40 37.28 40 40 C61.12 40 82.24 40 104 40 C104 42.64 104 45.28 104 48 C172.64 48 241.28 48 312 48 C312 45.36 312 42.72 312 40 C333.12 40 354.24 40 376 40 C376 37.36 376 34.72 376 32 C386.56 32 397.12 32 408 32 C408 29.36 408 26.72 408 24 C415.92 24 423.84 24 432 24 C432 26.64 432 29.28 432 32 C429.36 32 426.72 32 424 32 C424 34.64 424 37.28 424 40 C421.36 40 418.72 40 416 40 C416 42.64 416 45.28 416 48 C405.44 48 394.88 48 384 48 C384 50.64 384 53.28 384 56 C362.88 56 341.76 56 320 56 C320 58.64 320 61.28 320 64 C246.08 64 172.16 64 96 64 C96 61.36 96 58.72 96 56 C74.88 56 53.76 56 32 56 C32 53.36 32 50.72 32 48 C21.44 48 10.88 48 0 48 C0 45.36 0 42.72 0 40 C-2.64 40 -5.28 40 -8 40 C-8 37.36 -8 34.72 -8 32 C-10.64 32 -13.28 32 -16 32 C-16 26.72 -16 21.44 -16 16 C-13.36 16 -10.72 16 -8 16 C-8 13.36 -8 10.72 -8 8 C-5.36 8 -2.72 8 0 8 C0 5.36 0 2.72 0 0 Z " fill="#222034" transform="translate(24,392)"/>
<path d="M0 0 C7.92 0 15.84 0 24 0 C24 2.64 24 5.28 24 8 C26.64 8 29.28 8 32 8 C32 10.64 32 13.28 32 16 C24.08 16 16.16 16 8 16 C8 18.64 8 21.28 8 24 C2.72 24 -2.56 24 -8 24 C-8 26.64 -8 29.28 -8 32 C-13.28 32 -18.56 32 -24 32 C-24 37.28 -24 42.56 -24 48 C-18.72 48 -13.44 48 -8 48 C-8 50.64 -8 53.28 -8 56 C-2.72 56 2.56 56 8 56 C8 58.64 8 61.28 8 64 C15.92 64 23.84 64 32 64 C32 66.64 32 69.28 32 72 C47.84 72 63.68 72 80 72 C80 74.64 80 77.28 80 80 C127.52 80 175.04 80 224 80 C224 77.36 224 74.72 224 72 C239.84 72 255.68 72 272 72 C272 69.36 272 66.72 272 64 C279.92 64 287.84 64 296 64 C296 61.36 296 58.72 296 56 C301.28 56 306.56 56 312 56 C312 53.36 312 50.72 312 48 C322.56 48 333.12 48 344 48 C344 50.64 344 53.28 344 56 C341.36 56 338.72 56 336 56 C336 58.64 336 61.28 336 64 C330.72 64 325.44 64 320 64 C320 66.64 320 69.28 320 72 C314.72 72 309.44 72 304 72 C304 74.64 304 77.28 304 80 C296.08 80 288.16 80 280 80 C280 82.64 280 85.28 280 88 C264.16 88 248.32 88 232 88 C232 90.64 232 93.28 232 96 C179.2 96 126.4 96 72 96 C72 93.36 72 90.72 72 88 C56.16 88 40.32 88 24 88 C24 85.36 24 82.72 24 80 C16.08 80 8.16 80 0 80 C0 77.36 0 74.72 0 72 C-5.28 72 -10.56 72 -16 72 C-16 69.36 -16 66.72 -16 64 C-21.28 64 -26.56 64 -32 64 C-32 61.36 -32 58.72 -32 56 C-34.64 56 -37.28 56 -40 56 C-40 45.44 -40 34.88 -40 24 C-37.36 24 -34.72 24 -32 24 C-32 21.36 -32 18.72 -32 16 C-26.72 16 -21.44 16 -16 16 C-16 13.36 -16 10.72 -16 8 C-10.72 8 -5.44 8 0 8 C0 5.36 0 2.72 0 0 Z " fill="#222034" transform="translate(72,208)"/>
<path d="M0 0 C5.28 0 10.56 0 16 0 C16 7.92 16 15.84 16 24 C13.36 24 10.72 24 8 24 C8 29.28 8 34.56 8 40 C5.36 40 2.72 40 0 40 C0 42.64 0 45.28 0 48 C-2.64 48 -5.28 48 -8 48 C-8 50.64 -8 53.28 -8 56 C-10.64 56 -13.28 56 -16 56 C-16 58.64 -16 61.28 -16 64 C-18.64 64 -21.28 64 -24 64 C-24 66.64 -24 69.28 -24 72 C-29.28 72 -34.56 72 -40 72 C-40 74.64 -40 77.28 -40 80 C-42.64 80 -45.28 80 -48 80 C-48 82.64 -48 85.28 -48 88 C-50.64 88 -53.28 88 -56 88 C-56 90.64 -56 93.28 -56 96 C-58.64 96 -61.28 96 -64 96 C-64 101.28 -64 106.56 -64 112 C-66.64 112 -69.28 112 -72 112 C-72 119.92 -72 127.84 -72 136 C-69.36 136 -66.72 136 -64 136 C-64 138.64 -64 141.28 -64 144 C-61.36 144 -58.72 144 -56 144 C-56 146.64 -56 149.28 -56 152 C-53.36 152 -50.72 152 -48 152 C-48 154.64 -48 157.28 -48 160 C-45.36 160 -42.72 160 -40 160 C-40 162.64 -40 165.28 -40 168 C-37.36 168 -34.72 168 -32 168 C-32 170.64 -32 173.28 -32 176 C-29.36 176 -26.72 176 -24 176 C-24 178.64 -24 181.28 -24 184 C-21.36 184 -18.72 184 -16 184 C-16 189.28 -16 194.56 -16 200 C-21.28 200 -26.56 200 -32 200 C-32 197.36 -32 194.72 -32 192 C-34.64 192 -37.28 192 -40 192 C-40 189.36 -40 186.72 -40 184 C-45.28 184 -50.56 184 -56 184 C-56 181.36 -56 178.72 -56 176 C-61.28 176 -66.56 176 -72 176 C-72 173.36 -72 170.72 -72 168 C-74.64 168 -77.28 168 -80 168 C-80 165.36 -80 162.72 -80 160 C-82.64 160 -85.28 160 -88 160 C-88 154.72 -88 149.44 -88 144 C-90.64 144 -93.28 144 -96 144 C-96 141.36 -96 138.72 -96 136 C-98.64 136 -101.28 136 -104 136 C-104 122.8 -104 109.6 -104 96 C-101.36 96 -98.72 96 -96 96 C-96 93.36 -96 90.72 -96 88 C-93.36 88 -90.72 88 -88 88 C-88 85.36 -88 82.72 -88 80 C-82.72 80 -77.44 80 -72 80 C-72 77.36 -72 74.72 -72 72 C-69.36 72 -66.72 72 -64 72 C-64 69.36 -64 66.72 -64 64 C-61.36 64 -58.72 64 -56 64 C-56 61.36 -56 58.72 -56 56 C-50.72 56 -45.44 56 -40 56 C-40 53.36 -40 50.72 -40 48 C-37.36 48 -34.72 48 -32 48 C-32 45.36 -32 42.72 -32 40 C-29.36 40 -26.72 40 -24 40 C-24 37.36 -24 34.72 -24 32 C-21.36 32 -18.72 32 -16 32 C-16 29.36 -16 26.72 -16 24 C-13.36 24 -10.72 24 -8 24 C-8 18.72 -8 13.44 -8 8 C-5.36 8 -2.72 8 0 8 C0 5.36 0 2.72 0 0 Z " fill="#AC3232" transform="translate(256,32)"/>
<path d="M0 0 C2.64 0 5.28 0 8 0 C8 7.92 8 15.84 8 24 C10.64 24 13.28 24 16 24 C16 26.64 16 29.28 16 32 C21.28 32 26.56 32 32 32 C32 34.64 32 37.28 32 40 C42.56 40 53.12 40 64 40 C64 42.64 64 45.28 64 48 C77.2 48 90.4 48 104 48 C104 50.64 104 53.28 104 56 C146.24 56 188.48 56 232 56 C232 53.36 232 50.72 232 48 C245.2 48 258.4 48 272 48 C272 45.36 272 42.72 272 40 C290.48 40 308.96 40 328 40 C328 42.64 328 45.28 328 48 C322.72 48 317.44 48 312 48 C312 50.64 312 53.28 312 56 C301.44 56 290.88 56 280 56 C280 58.64 280 61.28 280 64 C266.8 64 253.6 64 240 64 C240 66.64 240 69.28 240 72 C192.48 72 144.96 72 96 72 C96 69.36 96 66.72 96 64 C82.8 64 69.6 64 56 64 C56 61.36 56 58.72 56 56 C45.44 56 34.88 56 24 56 C24 53.36 24 50.72 24 48 C18.72 48 13.44 48 8 48 C8 45.36 8 42.72 8 40 C5.36 40 2.72 40 0 40 C0 37.36 0 34.72 0 32 C-2.64 32 -5.28 32 -8 32 C-8 24.08 -8 16.16 -8 8 C-5.36 8 -2.72 8 0 8 C0 5.36 0 2.72 0 0 Z " fill="#222034" transform="translate(56,288)"/>
<path d="M0 0 C2.64 0 5.28 0 8 0 C8 5.28 8 10.56 8 16 C15.92 16 23.84 16 32 16 C32 18.64 32 21.28 32 24 C47.84 24 63.68 24 80 24 C80 26.64 80 29.28 80 32 C127.52 32 175.04 32 224 32 C224 29.36 224 26.72 224 24 C239.84 24 255.68 24 272 24 C272 21.36 272 18.72 272 16 C285.2 16 298.4 16 312 16 C312 18.64 312 21.28 312 24 C309.36 24 306.72 24 304 24 C304 26.64 304 29.28 304 32 C296.08 32 288.16 32 280 32 C280 34.64 280 37.28 280 40 C264.16 40 248.32 40 232 40 C232 42.64 232 45.28 232 48 C179.2 48 126.4 48 72 48 C72 45.36 72 42.72 72 40 C56.16 40 40.32 40 24 40 C24 37.36 24 34.72 24 32 C16.08 32 8.16 32 0 32 C0 29.36 0 26.72 0 24 C-2.64 24 -5.28 24 -8 24 C-8 18.72 -8 13.44 -8 8 C-5.36 8 -2.72 8 0 8 C0 5.36 0 2.72 0 0 Z " fill="#222034" transform="translate(80,360)"/>
<path d="M0 0 C5.28 0 10.56 0 16 0 C16 5.28 16 10.56 16 16 C13.36 16 10.72 16 8 16 C8 18.64 8 21.28 8 24 C5.36 24 2.72 24 0 24 C0 26.64 0 29.28 0 32 C-2.64 32 -5.28 32 -8 32 C-8 34.64 -8 37.28 -8 40 C-10.64 40 -13.28 40 -16 40 C-16 42.64 -16 45.28 -16 48 C-18.64 48 -21.28 48 -24 48 C-24 50.64 -24 53.28 -24 56 C-26.64 56 -29.28 56 -32 56 C-32 63.92 -32 71.84 -32 80 C-29.36 80 -26.72 80 -24 80 C-24 82.64 -24 85.28 -24 88 C-21.36 88 -18.72 88 -16 88 C-16 90.64 -16 93.28 -16 96 C-13.36 96 -10.72 96 -8 96 C-8 98.64 -8 101.28 -8 104 C-5.36 104 -2.72 104 0 104 C0 111.92 0 119.84 0 128 C-2.64 128 -5.28 128 -8 128 C-8 133.28 -8 138.56 -8 144 C-10.64 144 -13.28 144 -16 144 C-16 146.64 -16 149.28 -16 152 C-21.28 152 -26.56 152 -32 152 C-32 154.64 -32 157.28 -32 160 C-37.28 160 -42.56 160 -48 160 C-48 162.64 -48 165.28 -48 168 C-50.64 168 -53.28 168 -56 168 C-56 170.64 -56 173.28 -56 176 C-61.28 176 -66.56 176 -72 176 C-72 170.72 -72 165.44 -72 160 C-69.36 160 -66.72 160 -64 160 C-64 157.36 -64 154.72 -64 152 C-61.36 152 -58.72 152 -56 152 C-56 149.36 -56 146.72 -56 144 C-50.72 144 -45.44 144 -40 144 C-40 141.36 -40 138.72 -40 136 C-37.36 136 -34.72 136 -32 136 C-32 133.36 -32 130.72 -32 128 C-29.36 128 -26.72 128 -24 128 C-24 122.72 -24 117.44 -24 112 C-26.64 112 -29.28 112 -32 112 C-32 109.36 -32 106.72 -32 104 C-34.64 104 -37.28 104 -40 104 C-40 101.36 -40 98.72 -40 96 C-42.64 96 -45.28 96 -48 96 C-48 93.36 -48 90.72 -48 88 C-50.64 88 -53.28 88 -56 88 C-56 82.72 -56 77.44 -56 72 C-58.64 72 -61.28 72 -64 72 C-64 64.08 -64 56.16 -64 48 C-61.36 48 -58.72 48 -56 48 C-56 45.36 -56 42.72 -56 40 C-53.36 40 -50.72 40 -48 40 C-48 37.36 -48 34.72 -48 32 C-45.36 32 -42.72 32 -40 32 C-40 29.36 -40 26.72 -40 24 C-37.36 24 -34.72 24 -32 24 C-32 21.36 -32 18.72 -32 16 C-26.72 16 -21.44 16 -16 16 C-16 13.36 -16 10.72 -16 8 C-10.72 8 -5.44 8 0 8 C0 5.36 0 2.72 0 0 Z " fill="#AC3232" transform="translate(328,80)"/>
<path d="M0 0 C13.2 0 26.4 0 40 0 C40 2.64 40 5.28 40 8 C42.64 8 45.28 8 48 8 C48 13.28 48 18.56 48 24 C50.64 24 53.28 24 56 24 C56 29.28 56 34.56 56 40 C58.64 40 61.28 40 64 40 C64 50.56 64 61.12 64 72 C61.36 72 58.72 72 56 72 C56 74.64 56 77.28 56 80 C53.36 80 50.72 80 48 80 C48 85.28 48 90.56 48 96 C45.36 96 42.72 96 40 96 C40 98.64 40 101.28 40 104 C34.72 104 29.44 104 24 104 C24 106.64 24 109.28 24 112 C18.72 112 13.44 112 8 112 C8 114.64 8 117.28 8 120 C0.08 120 -7.84 120 -16 120 C-16 114.72 -16 109.44 -16 104 C-8.08 104 -0.16 104 8 104 C8 101.36 8 98.72 8 96 C13.28 96 18.56 96 24 96 C24 93.36 24 90.72 24 88 C26.64 88 29.28 88 32 88 C32 85.36 32 82.72 32 80 C34.64 80 37.28 80 40 80 C40 74.72 40 69.44 40 64 C42.64 64 45.28 64 48 64 C48 56.08 48 48.16 48 40 C45.36 40 42.72 40 40 40 C40 34.72 40 29.44 40 24 C37.36 24 34.72 24 32 24 C32 21.36 32 18.72 32 16 C24.08 16 16.16 16 8 16 C8 18.64 8 21.28 8 24 C2.72 24 -2.56 24 -8 24 C-8 18.72 -8 13.44 -8 8 C-5.36 8 -2.72 8 0 8 C0 5.36 0 2.72 0 0 Z " fill="#222034" transform="translate(440,224)"/>
</svg>
