<?xml version="1.0" encoding="UTF-8"?>
<svg version="1.1" xmlns="http://www.w3.org/2000/svg" width="320" height="320">
<path d="M0 0 C19.8 0 39.6 0 60 0 C60 1.65 60 3.3 60 5 C66.6 5 73.2 5 80 5 C80 6.65 80 8.3 80 10 C84.95 10 89.9 10 95 10 C95 11.65 95 13.3 95 15 C98.3 15 101.6 15 105 15 C105 16.65 105 18.3 105 20 C108.3 20 111.6 20 115 20 C115 21.65 115 23.3 115 25 C116.65 25 118.3 25 120 25 C120 26.65 120 28.3 120 30 C121.65 30 123.3 30 125 30 C125 31.65 125 33.3 125 35 C128.3 35 131.6 35 135 35 C135 36.65 135 38.3 135 40 C136.65 40 138.3 40 140 40 C140 41.65 140 43.3 140 45 C141.65 45 143.3 45 145 45 C145 46.65 145 48.3 145 50 C146.65 50 148.3 50 150 50 C150 51.65 150 53.3 150 55 C151.65 55 153.3 55 155 55 C155 58.3 155 61.6 155 65 C156.65 65 158.3 65 160 65 C160 66.65 160 68.3 160 70 C161.65 70 163.3 70 165 70 C165 71.65 165 73.3 165 75 C166.65 75 168.3 75 170 75 C170 78.3 170 81.6 170 85 C171.65 85 173.3 85 175 85 C175 88.3 175 91.6 175 95 C176.65 95 178.3 95 180 95 C180 99.95 180 104.9 180 110 C181.65 110 183.3 110 185 110 C185 116.6 185 123.2 185 130 C186.65 130 188.3 130 190 130 C190 149.8 190 169.6 190 190 C188.35 190 186.7 190 185 190 C185 196.6 185 203.2 185 210 C183.35 210 181.7 210 180 210 C180 214.95 180 219.9 180 225 C178.35 225 176.7 225 175 225 C175 228.3 175 231.6 175 235 C173.35 235 171.7 235 170 235 C170 238.3 170 241.6 170 245 C168.35 245 166.7 245 165 245 C165 246.65 165 248.3 165 250 C163.35 250 161.7 250 160 250 C160 251.65 160 253.3 160 255 C158.35 255 156.7 255 155 255 C155 258.3 155 261.6 155 265 C153.35 265 151.7 265 150 265 C150 266.65 150 268.3 150 270 C148.35 270 146.7 270 145 270 C145 271.65 145 273.3 145 275 C143.35 275 141.7 275 140 275 C140 276.65 140 278.3 140 280 C138.35 280 136.7 280 135 280 C135 281.65 135 283.3 135 285 C131.7 285 128.4 285 125 285 C125 286.65 125 288.3 125 290 C123.35 290 121.7 290 120 290 C120 291.65 120 293.3 120 295 C118.35 295 116.7 295 115 295 C115 296.65 115 298.3 115 300 C111.7 300 108.4 300 105 300 C105 301.65 105 303.3 105 305 C101.7 305 98.4 305 95 305 C95 306.65 95 308.3 95 310 C90.05 310 85.1 310 80 310 C80 311.65 80 313.3 80 315 C73.4 315 66.8 315 60 315 C60 316.65 60 318.3 60 320 C40.2 320 20.4 320 0 320 C0 318.35 0 316.7 0 315 C-6.6 315 -13.2 315 -20 315 C-20 313.35 -20 311.7 -20 310 C-24.95 310 -29.9 310 -35 310 C-35 308.35 -35 306.7 -35 305 C-38.3 305 -41.6 305 -45 305 C-45 303.35 -45 301.7 -45 300 C-48.3 300 -51.6 300 -55 300 C-55 298.35 -55 296.7 -55 295 C-56.65 295 -58.3 295 -60 295 C-60 293.35 -60 291.7 -60 290 C-61.65 290 -63.3 290 -65 290 C-65 288.35 -65 286.7 -65 285 C-68.3 285 -71.6 285 -75 285 C-75 283.35 -75 281.7 -75 280 C-76.65 280 -78.3 280 -80 280 C-80 278.35 -80 276.7 -80 275 C-81.65 275 -83.3 275 -85 275 C-85 273.35 -85 271.7 -85 270 C-86.65 270 -88.3 270 -90 270 C-90 268.35 -90 266.7 -90 265 C-91.65 265 -93.3 265 -95 265 C-95 261.7 -95 258.4 -95 255 C-96.65 255 -98.3 255 -100 255 C-100 253.35 -100 251.7 -100 250 C-101.65 250 -103.3 250 -105 250 C-105 248.35 -105 246.7 -105 245 C-106.65 245 -108.3 245 -110 245 C-110 241.7 -110 238.4 -110 235 C-111.65 235 -113.3 235 -115 235 C-115 231.7 -115 228.4 -115 225 C-116.65 225 -118.3 225 -120 225 C-120 220.05 -120 215.1 -120 210 C-121.65 210 -123.3 210 -125 210 C-125 203.4 -125 196.8 -125 190 C-126.65 190 -128.3 190 -130 190 C-130 170.2 -130 150.4 -130 130 C-128.35 130 -126.7 130 -125 130 C-125 123.4 -125 116.8 -125 110 C-123.35 110 -121.7 110 -120 110 C-120 105.05 -120 100.1 -120 95 C-118.35 95 -116.7 95 -115 95 C-115 91.7 -115 88.4 -115 85 C-113.35 85 -111.7 85 -110 85 C-110 81.7 -110 78.4 -110 75 C-108.35 75 -106.7 75 -105 75 C-105 73.35 -105 71.7 -105 70 C-103.35 70 -101.7 70 -100 70 C-100 68.35 -100 66.7 -100 65 C-98.35 65 -96.7 65 -95 65 C-95 61.7 -95 58.4 -95 55 C-93.35 55 -91.7 55 -90 55 C-90 53.35 -90 51.7 -90 50 C-88.35 50 -86.7 50 -85 50 C-85 48.35 -85 46.7 -85 45 C-83.35 45 -81.7 45 -80 45 C-80 43.35 -80 41.7 -80 40 C-78.35 40 -76.7 40 -75 40 C-75 38.35 -75 36.7 -75 35 C-71.7 35 -68.4 35 -65 35 C-65 33.35 -65 31.7 -65 30 C-63.35 30 -61.7 30 -60 30 C-60 28.35 -60 26.7 -60 25 C-58.35 25 -56.7 25 -55 25 C-55 23.35 -55 21.7 -55 20 C-51.7 20 -48.4 20 -45 20 C-45 18.35 -45 16.7 -45 15 C-41.7 15 -38.4 15 -35 15 C-35 13.35 -35 11.7 -35 10 C-30.05 10 -25.1 10 -20 10 C-20 8.35 -20 6.7 -20 5 C-13.4 5 -6.8 5 0 5 C0 3.35 0 1.7 0 0 Z " fill="#000000" transform="translate(130,0)"/>
<path d="M0 0 C9.9 0 19.8 0 30 0 C30 1.65 30 3.3 30 5 C31.65 5 33.3 5 35 5 C35 6.65 35 8.3 35 10 C36.65 10 38.3 10 40 10 C40 11.65 40 13.3 40 15 C41.65 15 43.3 15 45 15 C45 16.65 45 18.3 45 20 C46.65 20 48.3 20 50 20 C50 21.65 50 23.3 50 25 C51.65 25 53.3 25 55 25 C55 26.65 55 28.3 55 30 C56.65 30 58.3 30 60 30 C60 31.65 60 33.3 60 35 C61.65 35 63.3 35 65 35 C65 36.65 65 38.3 65 40 C66.65 40 68.3 40 70 40 C70 41.65 70 43.3 70 45 C71.65 45 73.3 45 75 45 C75 46.65 75 48.3 75 50 C76.65 50 78.3 50 80 50 C80 51.65 80 53.3 80 55 C81.65 55 83.3 55 85 55 C85 56.65 85 58.3 85 60 C86.65 60 88.3 60 90 60 C90 61.65 90 63.3 90 65 C91.65 65 93.3 65 95 65 C95 66.65 95 68.3 95 70 C96.65 70 98.3 70 100 70 C100 71.65 100 73.3 100 75 C101.65 75 103.3 75 105 75 C105 76.65 105 78.3 105 80 C106.65 80 108.3 80 110 80 C110 81.65 110 83.3 110 85 C111.65 85 113.3 85 115 85 C115 86.65 115 88.3 115 90 C116.65 90 118.3 90 120 90 C120 91.65 120 93.3 120 95 C121.65 95 123.3 95 125 95 C125 96.65 125 98.3 125 100 C126.65 100 128.3 100 130 100 C130 101.65 130 103.3 130 105 C131.65 105 133.3 105 135 105 C135 106.65 135 108.3 135 110 C136.65 110 138.3 110 140 110 C140 111.65 140 113.3 140 115 C141.65 115 143.3 115 145 115 C145 116.65 145 118.3 145 120 C146.65 120 148.3 120 150 120 C150 121.65 150 123.3 150 125 C151.65 125 153.3 125 155 125 C155 126.65 155 128.3 155 130 C156.65 130 158.3 130 160 130 C160 131.65 160 133.3 160 135 C161.65 135 163.3 135 165 135 C165 136.65 165 138.3 165 140 C166.65 140 168.3 140 170 140 C170 141.65 170 143.3 170 145 C171.65 145 173.3 145 175 145 C175 146.65 175 148.3 175 150 C176.65 150 178.3 150 180 150 C180 151.65 180 153.3 180 155 C181.65 155 183.3 155 185 155 C185 156.65 185 158.3 185 160 C186.65 160 188.3 160 190 160 C190 161.65 190 163.3 190 165 C191.65 165 193.3 165 195 165 C195 166.65 195 168.3 195 170 C196.65 170 198.3 170 200 170 C200 171.65 200 173.3 200 175 C201.65 175 203.3 175 205 175 C205 176.65 205 178.3 205 180 C206.65 180 208.3 180 210 180 C210 181.65 210 183.3 210 185 C211.65 185 213.3 185 215 185 C215 186.65 215 188.3 215 190 C216.65 190 218.3 190 220 190 C220 191.65 220 193.3 220 195 C221.65 195 223.3 195 225 195 C225 196.65 225 198.3 225 200 C226.65 200 228.3 200 230 200 C230 201.65 230 203.3 230 205 C231.65 205 233.3 205 235 205 C235 208.3 235 211.6 235 215 C233.35 215 231.7 215 230 215 C230 216.65 230 218.3 230 220 C228.35 220 226.7 220 225 220 C225 221.65 225 223.3 225 225 C223.35 225 221.7 225 220 225 C220 226.65 220 228.3 220 230 C218.35 230 216.7 230 215 230 C215 228.35 215 226.7 215 225 C213.35 225 211.7 225 210 225 C210 223.35 210 221.7 210 220 C208.35 220 206.7 220 205 220 C205 218.35 205 216.7 205 215 C203.35 215 201.7 215 200 215 C200 213.35 200 211.7 200 210 C198.35 210 196.7 210 195 210 C195 208.35 195 206.7 195 205 C193.35 205 191.7 205 190 205 C190 203.35 190 201.7 190 200 C188.35 200 186.7 200 185 200 C185 198.35 185 196.7 185 195 C183.35 195 181.7 195 180 195 C180 193.35 180 191.7 180 190 C178.35 190 176.7 190 175 190 C175 188.35 175 186.7 175 185 C173.35 185 171.7 185 170 185 C170 183.35 170 181.7 170 180 C168.35 180 166.7 180 165 180 C165 178.35 165 176.7 165 175 C163.35 175 161.7 175 160 175 C160 173.35 160 171.7 160 170 C158.35 170 156.7 170 155 170 C155 168.35 155 166.7 155 165 C153.35 165 151.7 165 150 165 C150 163.35 150 161.7 150 160 C148.35 160 146.7 160 145 160 C145 158.35 145 156.7 145 155 C143.35 155 141.7 155 140 155 C140 153.35 140 151.7 140 150 C138.35 150 136.7 150 135 150 C135 148.35 135 146.7 135 145 C133.35 145 131.7 145 130 145 C130 143.35 130 141.7 130 140 C128.35 140 126.7 140 125 140 C125 138.35 125 136.7 125 135 C123.35 135 121.7 135 120 135 C120 133.35 120 131.7 120 130 C118.35 130 116.7 130 115 130 C115 128.35 115 126.7 115 125 C113.35 125 111.7 125 110 125 C110 123.35 110 121.7 110 120 C108.35 120 106.7 120 105 120 C105 118.35 105 116.7 105 115 C103.35 115 101.7 115 100 115 C100 113.35 100 111.7 100 110 C98.35 110 96.7 110 95 110 C95 108.35 95 106.7 95 105 C93.35 105 91.7 105 90 105 C90 103.35 90 101.7 90 100 C88.35 100 86.7 100 85 100 C85 98.35 85 96.7 85 95 C83.35 95 81.7 95 80 95 C80 93.35 80 91.7 80 90 C78.35 90 76.7 90 75 90 C75 88.35 75 86.7 75 85 C73.35 85 71.7 85 70 85 C70 83.35 70 81.7 70 80 C68.35 80 66.7 80 65 80 C65 78.35 65 76.7 65 75 C63.35 75 61.7 75 60 75 C60 73.35 60 71.7 60 70 C58.35 70 56.7 70 55 70 C55 68.35 55 66.7 55 65 C53.35 65 51.7 65 50 65 C50 63.35 50 61.7 50 60 C48.35 60 46.7 60 45 60 C45 58.35 45 56.7 45 55 C43.35 55 41.7 55 40 55 C40 53.35 40 51.7 40 50 C38.35 50 36.7 50 35 50 C35 48.35 35 46.7 35 45 C33.35 45 31.7 45 30 45 C30 102.75 30 160.5 30 220 C20.1 220 10.2 220 0 220 C0 147.4 0 74.8 0 0 Z " fill="#FFFFFF" transform="translate(50,50)"/>
<path d="M0 0 C9.9 0 19.8 0 30 0 C30 47.85 30 95.7 30 145 C20.1 145 10.2 145 0 145 C0 97.15 0 49.3 0 0 Z " fill="#FFFFFF" transform="translate(240,50)"/>
</svg>
