<?xml version="1.0" encoding="UTF-8"?>
<svg version="1.1" xmlns="http://www.w3.org/2000/svg" width="320" height="320">
<style>
    .s0 { fill: #ff3e00; }
    .s1 { fill: #fff; }
</style>
<path class="s0" d="M0 0 C19.8 0 39.6 0 60 0 C60 4.95 60 9.9 60 15 C68.25 15 76.5 15 85 15 C85 18.3 85 21.6 85 25 C88.3 25 91.6 25 95 25 C95 26.65 95 28.3 95 30 C96.65 30 98.3 30 100 30 C100 33.3 100 36.6 100 40 C103.3 40 106.6 40 110 40 C110 43.3 110 46.6 110 50 C114.95 50 119.9 50 125 50 C125 79.7 125 109.4 125 140 C120.05 140 115.1 140 110 140 C110 144.95 110 149.9 110 155 C114.95 155 119.9 155 125 155 C125 174.8 125 194.6 125 215 C121.7 215 118.4 215 115 215 C115 216.65 115 218.3 115 220 C113.35 220 111.7 220 110 220 C110 226.6 110 233.2 110 240 C106.7 240 103.4 240 100 240 C100 244.95 100 249.9 100 255 C95.05 255 90.1 255 85 255 C85 259.95 85 264.9 85 270 C76.75 270 68.5 270 60 270 C60 273.3 60 276.6 60 280 C56.7 280 53.4 280 50 280 C50 281.65 50 283.3 50 285 C48.35 285 46.7 285 45 285 C45 288.3 45 291.6 45 295 C36.75 295 28.5 295 20 295 C20 298.3 20 301.6 20 305 C16.7 305 13.4 305 10 305 C10 309.95 10 314.9 10 320 C-23 320 -56 320 -90 320 C-90 316.7 -90 313.4 -90 310 C-91.65 310 -93.3 310 -95 310 C-95 308.35 -95 306.7 -95 305 C-98.3 305 -101.6 305 -105 305 C-105 301.7 -105 298.4 -105 295 C-108.3 295 -111.6 295 -115 295 C-115 293.35 -115 291.7 -115 290 C-116.65 290 -118.3 290 -120 290 C-120 286.7 -120 283.4 -120 280 C-123.3 280 -126.6 280 -130 280 C-130 276.7 -130 273.4 -130 270 C-134.95 270 -139.9 270 -145 270 C-145 245.25 -145 220.5 -145 195 C-141.7 195 -138.4 195 -135 195 C-135 193.35 -135 191.7 -135 190 C-133.35 190 -131.7 190 -130 190 C-130 181.75 -130 173.5 -130 165 C-134.95 165 -139.9 165 -145 165 C-145 148.5 -145 132 -145 115 C-140.05 115 -135.1 115 -130 115 C-130 106.75 -130 98.5 -130 90 C-126.7 90 -123.4 90 -120 90 C-120 86.7 -120 83.4 -120 80 C-116.7 80 -113.4 80 -110 80 C-110 78.35 -110 76.7 -110 75 C-108.35 75 -106.7 75 -105 75 C-105 71.7 -105 68.4 -105 65 C-96.75 65 -88.5 65 -80 65 C-80 60.05 -80 55.1 -80 50 C-75.05 50 -70.1 50 -65 50 C-65 46.7 -65 43.4 -65 40 C-56.75 40 -48.5 40 -40 40 C-40 35.05 -40 30.1 -40 25 C-36.7 25 -33.4 25 -30 25 C-30 21.7 -30 18.4 -30 15 C-21.75 15 -13.5 15 -5 15 C-5 13.35 -5 11.7 -5 10 C-3.35 10 -1.7 10 0 10 C0 6.7 0 3.4 0 0 Z M10 35 C10 39.95 10 44.9 10 50 C1.75 50 -6.5 50 -15 50 C-15 53.3 -15 56.6 -15 60 C-16.65 60 -18.3 60 -20 60 C-20 61.65 -20 63.3 -20 65 C-21.65 65 -23.3 65 -25 65 C-25 69.95 -25 74.9 -25 80 C-33.25 80 -41.5 80 -50 80 C-50 83.3 -50 86.6 -50 90 C-59.9 90 -69.8 90 -80 90 C-80 94.95 -80 99.9 -80 105 C-83.3 105 -86.6 105 -90 105 C-90 128.1 -90 151.2 -90 175 C-85.05 175 -80.1 175 -75 175 C-75 179.95 -75 184.9 -75 190 C-53.55 190 -32.1 190 -10 190 C-10 188.35 -10 186.7 -10 185 C-13.3 185 -16.6 185 -20 185 C-20 183.35 -20 181.7 -20 180 C-15.05 180 -10.1 180 -5 180 C-5 183.3 -5 186.6 -5 190 C-3.35 190 -1.7 190 0 190 C0 186.7 0 183.4 0 180 C8.25 180 16.5 180 25 180 C25 175.05 25 170.1 25 165 C26.65 165 28.3 165 30 165 C30 166.65 30 168.3 30 170 C31.65 170 33.3 170 35 170 C35 173.3 35 176.6 35 180 C38.3 180 41.6 180 45 180 C45 183.3 45 186.6 45 190 C41.7 190 38.4 190 35 190 C35 194.95 35 199.9 35 205 C30.05 205 25.1 205 20 205 C20 208.3 20 211.6 20 215 C11.75 215 3.5 215 -5 215 C-5 219.95 -5 224.9 -5 230 C-8.3 230 -11.6 230 -15 230 C-15 233.3 -15 236.6 -15 240 C-31.5 240 -48 240 -65 240 C-65 233.4 -65 226.8 -65 220 C-66.65 220 -68.3 220 -70 220 C-70 218.35 -70 216.7 -70 215 C-81.55 215 -93.1 215 -105 215 C-105 216.65 -105 218.3 -105 220 C-106.65 220 -108.3 220 -110 220 C-110 221.65 -110 223.3 -110 225 C-108.35 225 -106.7 225 -105 225 C-105 226.65 -105 228.3 -105 230 C-106.65 230 -108.3 230 -110 230 C-110 233.3 -110 236.6 -110 240 C-108.35 240 -106.7 240 -105 240 C-105 241.65 -105 243.3 -105 245 C-101.7 245 -98.4 245 -95 245 C-95 253.25 -95 261.5 -95 270 C-90.05 270 -85.1 270 -80 270 C-80 274.95 -80 279.9 -80 285 C-55.25 285 -30.5 285 -5 285 C-5 281.7 -5 278.4 -5 275 C-3.35 275 -1.7 275 0 275 C0 273.35 0 271.7 0 270 C3.3 270 6.6 270 10 270 C10 265.05 10 260.1 10 255 C18.25 255 26.5 255 35 255 C35 251.7 35 248.4 35 245 C39.95 245 44.9 245 50 245 C50 240.05 50 235.1 50 230 C58.25 230 66.5 230 75 230 C75 221.75 75 213.5 75 205 C78.3 205 81.6 205 85 205 C85 203.35 85 201.7 85 200 C86.65 200 88.3 200 90 200 C90 198.35 90 196.7 90 195 C88.35 195 86.7 195 85 195 C85 193.35 85 191.7 85 190 C86.65 190 88.3 190 90 190 C90 186.7 90 183.4 90 180 C88.35 180 86.7 180 85 180 C85 178.35 85 176.7 85 175 C86.65 175 88.3 175 90 175 C90 173.35 90 171.7 90 170 C88.35 170 86.7 170 85 170 C85 168.35 85 166.7 85 165 C81.7 165 78.4 165 75 165 C75 156.75 75 148.5 75 140 C66.75 140 58.5 140 50 140 C50 136.7 50 133.4 50 130 C48.35 130 46.7 130 45 130 C45 128.35 45 126.7 45 125 C33.45 125 21.9 125 10 125 C10 129.95 10 134.9 10 140 C1.75 140 -6.5 140 -15 140 C-15 143.3 -15 146.6 -15 150 C-16.65 150 -18.3 150 -20 150 C-20 151.65 -20 153.3 -20 155 C-29.9 155 -39.8 155 -50 155 C-50 153.35 -50 151.7 -50 150 C-51.65 150 -53.3 150 -55 150 C-55 143.4 -55 136.8 -55 130 C-50.05 130 -45.1 130 -40 130 C-40 125.05 -40 120.1 -40 115 C-31.75 115 -23.5 115 -15 115 C-15 111.7 -15 108.4 -15 105 C-11.7 105 -8.4 105 -5 105 C-5 103.35 -5 101.7 -5 100 C-3.35 100 -1.7 100 0 100 C0 96.7 0 93.4 0 90 C8.25 90 16.5 90 25 90 C25 86.7 25 83.4 25 80 C28.3 80 31.6 80 35 80 C35 83.3 35 86.6 35 90 C38.3 90 41.6 90 45 90 C45 93.3 45 96.6 45 100 C46.65 100 48.3 100 50 100 C50 101.65 50 103.3 50 105 C58.25 105 66.5 105 75 105 C75 108.3 75 111.6 75 115 C78.3 115 81.6 115 85 115 C85 113.35 85 111.7 85 110 C86.65 110 88.3 110 90 110 C90 98.45 90 86.9 90 75 C88.35 75 86.7 75 85 75 C85 71.7 85 68.4 85 65 C81.7 65 78.4 65 75 65 C75 60.05 75 55.1 75 50 C66.75 50 58.5 50 50 50 C50 46.7 50 43.4 50 40 C48.35 40 46.7 40 45 40 C45 38.35 45 36.7 45 35 C33.45 35 21.9 35 10 35 Z " transform="translate(170,0)"/>
<path class="s1" d="M0 0 C11.55 0 23.1 0 35 0 C35 1.65 35 3.3 35 5 C36.65 5 38.3 5 40 5 C40 8.3 40 11.6 40 15 C48.25 15 56.5 15 65 15 C65 19.95 65 24.9 65 30 C68.3 30 71.6 30 75 30 C75 33.3 75 36.6 75 40 C76.65 40 78.3 40 80 40 C80 51.55 80 63.1 80 75 C78.35 75 76.7 75 75 75 C75 76.65 75 78.3 75 80 C71.7 80 68.4 80 65 80 C65 76.7 65 73.4 65 70 C56.75 70 48.5 70 40 70 C40 68.35 40 66.7 40 65 C38.35 65 36.7 65 35 65 C35 61.7 35 58.4 35 55 C31.7 55 28.4 55 25 55 C25 51.7 25 48.4 25 45 C21.7 45 18.4 45 15 45 C15 48.3 15 51.6 15 55 C6.75 55 -1.5 55 -10 55 C-10 58.3 -10 61.6 -10 65 C-11.65 65 -13.3 65 -15 65 C-15 66.65 -15 68.3 -15 70 C-18.3 70 -21.6 70 -25 70 C-25 73.3 -25 76.6 -25 80 C-33.25 80 -41.5 80 -50 80 C-50 84.95 -50 89.9 -50 95 C-54.95 95 -59.9 95 -65 95 C-65 101.6 -65 108.2 -65 115 C-63.35 115 -61.7 115 -60 115 C-60 116.65 -60 118.3 -60 120 C-50.1 120 -40.2 120 -30 120 C-30 118.35 -30 116.7 -30 115 C-28.35 115 -26.7 115 -25 115 C-25 111.7 -25 108.4 -25 105 C-16.75 105 -8.5 105 0 105 C0 100.05 0 95.1 0 90 C11.55 90 23.1 90 35 90 C35 91.65 35 93.3 35 95 C36.65 95 38.3 95 40 95 C40 98.3 40 101.6 40 105 C48.25 105 56.5 105 65 105 C65 113.25 65 121.5 65 130 C68.3 130 71.6 130 75 130 C75 131.65 75 133.3 75 135 C76.65 135 78.3 135 80 135 C80 136.65 80 138.3 80 140 C78.35 140 76.7 140 75 140 C75 141.65 75 143.3 75 145 C76.65 145 78.3 145 80 145 C80 148.3 80 151.6 80 155 C78.35 155 76.7 155 75 155 C75 156.65 75 158.3 75 160 C76.65 160 78.3 160 80 160 C80 161.65 80 163.3 80 165 C78.35 165 76.7 165 75 165 C75 166.65 75 168.3 75 170 C71.7 170 68.4 170 65 170 C65 178.25 65 186.5 65 195 C56.75 195 48.5 195 40 195 C40 199.95 40 204.9 40 210 C35.05 210 30.1 210 25 210 C25 213.3 25 216.6 25 220 C16.75 220 8.5 220 0 220 C0 224.95 0 229.9 0 235 C-3.3 235 -6.6 235 -10 235 C-10 236.65 -10 238.3 -10 240 C-11.65 240 -13.3 240 -15 240 C-15 243.3 -15 246.6 -15 250 C-39.75 250 -64.5 250 -90 250 C-90 245.05 -90 240.1 -90 235 C-94.95 235 -99.9 235 -105 235 C-105 226.75 -105 218.5 -105 210 C-108.3 210 -111.6 210 -115 210 C-115 208.35 -115 206.7 -115 205 C-116.65 205 -118.3 205 -120 205 C-120 201.7 -120 198.4 -120 195 C-118.35 195 -116.7 195 -115 195 C-115 193.35 -115 191.7 -115 190 C-116.65 190 -118.3 190 -120 190 C-120 188.35 -120 186.7 -120 185 C-118.35 185 -116.7 185 -115 185 C-115 183.35 -115 181.7 -115 180 C-103.45 180 -91.9 180 -80 180 C-80 181.65 -80 183.3 -80 185 C-78.35 185 -76.7 185 -75 185 C-75 191.6 -75 198.2 -75 205 C-58.5 205 -42 205 -25 205 C-25 201.7 -25 198.4 -25 195 C-21.7 195 -18.4 195 -15 195 C-15 190.05 -15 185.1 -15 180 C-6.75 180 1.5 180 10 180 C10 176.7 10 173.4 10 170 C14.95 170 19.9 170 25 170 C25 165.05 25 160.1 25 155 C28.3 155 31.6 155 35 155 C35 151.7 35 148.4 35 145 C31.7 145 28.4 145 25 145 C25 141.7 25 138.4 25 135 C23.35 135 21.7 135 20 135 C20 133.35 20 131.7 20 130 C18.35 130 16.7 130 15 130 C15 134.95 15 139.9 15 145 C6.75 145 -1.5 145 -10 145 C-10 148.3 -10 151.6 -10 155 C-11.65 155 -13.3 155 -15 155 C-15 151.7 -15 148.4 -15 145 C-19.95 145 -24.9 145 -30 145 C-30 146.65 -30 148.3 -30 150 C-26.7 150 -23.4 150 -20 150 C-20 151.65 -20 153.3 -20 155 C-41.45 155 -62.9 155 -85 155 C-85 150.05 -85 145.1 -85 140 C-89.95 140 -94.9 140 -100 140 C-100 116.9 -100 93.8 -100 70 C-96.7 70 -93.4 70 -90 70 C-90 65.05 -90 60.1 -90 55 C-80.1 55 -70.2 55 -60 55 C-60 51.7 -60 48.4 -60 45 C-51.75 45 -43.5 45 -35 45 C-35 40.05 -35 35.1 -35 30 C-33.35 30 -31.7 30 -30 30 C-30 28.35 -30 26.7 -30 25 C-28.35 25 -26.7 25 -25 25 C-25 21.7 -25 18.4 -25 15 C-16.75 15 -8.5 15 0 15 C0 10.05 0 5.1 0 0 Z " transform="translate(180,35)"/>
</svg>
