<?xml version="1.0" encoding="UTF-8"?>
<svg version="1.1" xmlns="http://www.w3.org/2000/svg" width="320" height="320">
<path d="M0 0 C23.1 0 46.2 0 70 0 C70 2.31 70 4.62 70 7 C76.93 7 83.86 7 91 7 C91 9.31 91 11.62 91 14 C97.93 14 104.86 14 112 14 C112 16.31 112 18.62 112 21 C114.31 21 116.62 21 119 21 C119 23.31 119 25.62 119 28 C123.62 28 128.24 28 133 28 C133 30.31 133 32.62 133 35 C135.31 35 137.62 35 140 35 C140 37.31 140 39.62 140 42 C142.31 42 144.62 42 147 42 C147 44.31 147 46.62 147 49 C149.31 49 151.62 49 154 49 C154 51.31 154 53.62 154 56 C156.31 56 158.62 56 161 56 C161 58.31 161 60.62 161 63 C163.31 63 165.62 63 168 63 C168 67.62 168 72.24 168 77 C170.31 77 172.62 77 175 77 C175 79.31 175 81.62 175 84 C177.31 84 179.62 84 182 84 C182 90.93 182 97.86 182 105 C184.31 105 186.62 105 189 105 C189 111.93 189 118.86 189 126 C190.65 126 192.3 126 194 126 C194 149.1 194 172.2 194 196 C192.35 196 190.7 196 189 196 C189 202.93 189 209.86 189 217 C186.69 217 184.38 217 182 217 C182 223.93 182 230.86 182 238 C179.69 238 177.38 238 175 238 C175 240.31 175 242.62 175 245 C172.69 245 170.38 245 168 245 C168 249.62 168 254.24 168 259 C165.69 259 163.38 259 161 259 C161 261.31 161 263.62 161 266 C158.69 266 156.38 266 154 266 C154 268.31 154 270.62 154 273 C151.69 273 149.38 273 147 273 C147 275.31 147 277.62 147 280 C144.69 280 142.38 280 140 280 C140 282.31 140 284.62 140 287 C137.69 287 135.38 287 133 287 C133 289.31 133 291.62 133 294 C128.38 294 123.76 294 119 294 C119 296.31 119 298.62 119 301 C116.69 301 114.38 301 112 301 C112 303.31 112 305.62 112 308 C105.07 308 98.14 308 91 308 C91 310.31 91 312.62 91 315 C84.07 315 77.14 315 70 315 C70 316.65 70 318.3 70 320 C46.9 320 23.8 320 0 320 C0 318.35 0 316.7 0 315 C-6.93 315 -13.86 315 -21 315 C-21 312.69 -21 310.38 -21 308 C-27.93 308 -34.86 308 -42 308 C-42 305.69 -42 303.38 -42 301 C-44.31 301 -46.62 301 -49 301 C-49 298.69 -49 296.38 -49 294 C-53.62 294 -58.24 294 -63 294 C-63 291.69 -63 289.38 -63 287 C-65.31 287 -67.62 287 -70 287 C-70 284.69 -70 282.38 -70 280 C-72.31 280 -74.62 280 -77 280 C-77 277.69 -77 275.38 -77 273 C-79.31 273 -81.62 273 -84 273 C-84 270.69 -84 268.38 -84 266 C-86.31 266 -88.62 266 -91 266 C-91 263.69 -91 261.38 -91 259 C-93.31 259 -95.62 259 -98 259 C-98 254.38 -98 249.76 -98 245 C-100.31 245 -102.62 245 -105 245 C-105 242.69 -105 240.38 -105 238 C-107.31 238 -109.62 238 -112 238 C-112 231.07 -112 224.14 -112 217 C-114.31 217 -116.62 217 -119 217 C-119 210.07 -119 203.14 -119 196 C-121.31 196 -123.62 196 -126 196 C-126 172.9 -126 149.8 -126 126 C-123.69 126 -121.38 126 -119 126 C-119 119.07 -119 112.14 -119 105 C-116.69 105 -114.38 105 -112 105 C-112 98.07 -112 91.14 -112 84 C-109.69 84 -107.38 84 -105 84 C-105 81.69 -105 79.38 -105 77 C-102.69 77 -100.38 77 -98 77 C-98 72.38 -98 67.76 -98 63 C-95.69 63 -93.38 63 -91 63 C-91 60.69 -91 58.38 -91 56 C-88.69 56 -86.38 56 -84 56 C-84 53.69 -84 51.38 -84 49 C-81.69 49 -79.38 49 -77 49 C-77 46.69 -77 44.38 -77 42 C-74.69 42 -72.38 42 -70 42 C-70 39.69 -70 37.38 -70 35 C-67.69 35 -65.38 35 -63 35 C-63 32.69 -63 30.38 -63 28 C-58.38 28 -53.76 28 -49 28 C-49 25.69 -49 23.38 -49 21 C-46.69 21 -44.38 21 -42 21 C-42 18.69 -42 16.38 -42 14 C-35.07 14 -28.14 14 -21 14 C-21 11.69 -21 9.38 -21 7 C-14.07 7 -7.14 7 0 7 C0 4.69 0 2.38 0 0 Z M-7 35 C-7 37.31 -7 39.62 -7 42 C-11.62 42 -16.24 42 -21 42 C-21 44.31 -21 46.62 -21 49 C-25.62 49 -30.24 49 -35 49 C-35 51.31 -35 53.62 -35 56 C-37.31 56 -39.62 56 -42 56 C-42 58.31 -42 60.62 -42 63 C-46.62 63 -51.24 63 -56 63 C-56 65.31 -56 67.62 -56 70 C-58.31 70 -60.62 70 -63 70 C-63 74.62 -63 79.24 -63 84 C-65.31 84 -67.62 84 -70 84 C-70 86.31 -70 88.62 -70 91 C-72.31 91 -74.62 91 -77 91 C-77 95.62 -77 100.24 -77 105 C-79.31 105 -81.62 105 -84 105 C-84 109.62 -84 114.24 -84 119 C-86.31 119 -88.62 119 -91 119 C-91 146.72 -91 174.44 -91 203 C-88.69 203 -86.38 203 -84 203 C-84 207.62 -84 212.24 -84 217 C-81.69 217 -79.38 217 -77 217 C-77 221.62 -77 226.24 -77 231 C-74.69 231 -72.38 231 -70 231 C-70 233.31 -70 235.62 -70 238 C-67.69 238 -65.38 238 -63 238 C-63 242.62 -63 247.24 -63 252 C-60.69 252 -58.38 252 -56 252 C-56 254.31 -56 256.62 -56 259 C-51.38 259 -46.76 259 -42 259 C-42 261.31 -42 263.62 -42 266 C-39.69 266 -37.38 266 -35 266 C-35 268.31 -35 270.62 -35 273 C-30.38 273 -25.76 273 -21 273 C-21 275.31 -21 277.62 -21 280 C-16.38 280 -11.76 280 -7 280 C-7 282.31 -7 284.62 -7 287 C20.72 287 48.44 287 77 287 C77 284.69 77 282.38 77 280 C81.62 280 86.24 280 91 280 C91 277.69 91 275.38 91 273 C95.62 273 100.24 273 105 273 C105 270.69 105 268.38 105 266 C107.31 266 109.62 266 112 266 C112 263.69 112 261.38 112 259 C116.62 259 121.24 259 126 259 C126 256.69 126 254.38 126 252 C128.31 252 130.62 252 133 252 C133 247.38 133 242.76 133 238 C135.31 238 137.62 238 140 238 C140 235.69 140 233.38 140 231 C142.31 231 144.62 231 147 231 C147 226.38 147 221.76 147 217 C149.31 217 151.62 217 154 217 C154 212.38 154 207.76 154 203 C156.31 203 158.62 203 161 203 C161 175.28 161 147.56 161 119 C158.69 119 156.38 119 154 119 C154 114.38 154 109.76 154 105 C151.69 105 149.38 105 147 105 C147 100.38 147 95.76 147 91 C144.69 91 142.38 91 140 91 C140 88.69 140 86.38 140 84 C137.69 84 135.38 84 133 84 C133 79.38 133 74.76 133 70 C130.69 70 128.38 70 126 70 C126 67.69 126 65.38 126 63 C121.38 63 116.76 63 112 63 C112 60.69 112 58.38 112 56 C109.69 56 107.38 56 105 56 C105 53.69 105 51.38 105 49 C100.38 49 95.76 49 91 49 C91 46.69 91 44.38 91 42 C86.38 42 81.76 42 77 42 C77 39.69 77 37.38 77 35 C49.28 35 21.56 35 -7 35 Z " fill="#387A02" transform="translate(126,0)"/>
<path d="M0 0 C30.03 0 60.06 0 91 0 C91 2.31 91 4.62 91 7 C93.31 7 95.62 7 98 7 C98 9.31 98 11.62 98 14 C100.31 14 102.62 14 105 14 C105 16.31 105 18.62 105 21 C107.31 21 109.62 21 112 21 C112 23.31 112 25.62 112 28 C114.31 28 116.62 28 119 28 C119 30.31 119 32.62 119 35 C121.31 35 123.62 35 126 35 C126 39.62 126 44.24 126 49 C123.69 49 121.38 49 119 49 C119 51.31 119 53.62 119 56 C121.31 56 123.62 56 126 56 C126 58.31 126 60.62 126 63 C128.31 63 130.62 63 133 63 C133 65.31 133 67.62 133 70 C135.31 70 137.62 70 140 70 C140 81.55 140 93.1 140 105 C137.69 105 135.38 105 133 105 C133 102.69 133 100.38 133 98 C130.69 98 128.38 98 126 98 C126 95.69 126 93.38 126 91 C123.69 91 121.38 91 119 91 C119 88.69 119 86.38 119 84 C116.69 84 114.38 84 112 84 C112 81.69 112 79.38 112 77 C109.69 77 107.38 77 105 77 C105 74.69 105 72.38 105 70 C102.69 70 100.38 70 98 70 C98 72.31 98 74.62 98 77 C95.69 77 93.38 77 91 77 C91 79.31 91 81.62 91 84 C93.31 84 95.62 84 98 84 C98 86.31 98 88.62 98 91 C100.31 91 102.62 91 105 91 C105 93.31 105 95.62 105 98 C107.31 98 109.62 98 112 98 C112 100.31 112 102.62 112 105 C114.31 105 116.62 105 119 105 C119 107.31 119 109.62 119 112 C121.31 112 123.62 112 126 112 C126 114.31 126 116.62 126 119 C114.45 119 102.9 119 91 119 C91 116.69 91 114.38 91 112 C88.69 112 86.38 112 84 112 C84 109.69 84 107.38 84 105 C81.69 105 79.38 105 77 105 C77 102.69 77 100.38 77 98 C74.69 98 72.38 98 70 98 C70 100.31 70 102.62 70 105 C65.38 105 60.76 105 56 105 C56 102.69 56 100.38 56 98 C53.69 98 51.38 98 49 98 C49 95.69 49 93.38 49 91 C46.69 91 44.38 91 42 91 C42 88.69 42 86.38 42 84 C39.69 84 37.38 84 35 84 C35 81.69 35 79.38 35 77 C32.69 77 30.38 77 28 77 C28 74.69 28 72.38 28 70 C25.69 70 23.38 70 21 70 C21 58.45 21 46.9 21 35 C30.24 35 39.48 35 49 35 C49 44.24 49 53.48 49 63 C51.31 63 53.62 63 56 63 C56 65.31 56 67.62 56 70 C60.62 70 65.24 70 70 70 C70 67.69 70 65.38 70 63 C72.31 63 74.62 63 77 63 C77 60.69 77 58.38 77 56 C79.31 56 81.62 56 84 56 C84 53.69 84 51.38 84 49 C86.31 49 88.62 49 91 49 C91 46.69 91 44.38 91 42 C88.69 42 86.38 42 84 42 C84 39.69 84 37.38 84 35 C81.69 35 79.38 35 77 35 C77 32.69 77 30.38 77 28 C58.52 28 40.04 28 21 28 C21 25.69 21 23.38 21 21 C18.69 21 16.38 21 14 21 C14 18.69 14 16.38 14 14 C11.69 14 9.38 14 7 14 C7 11.69 7 9.38 7 7 C4.69 7 2.38 7 0 7 C0 4.69 0 2.38 0 0 Z " fill="#397A03" transform="translate(63,84)"/>
<path d="M0 0 C4.62 0 9.24 0 14 0 C14 2.31 14 4.62 14 7 C16.31 7 18.62 7 21 7 C21 9.31 21 11.62 21 14 C53.34 14 85.68 14 119 14 C119 16.31 119 18.62 119 21 C121.31 21 123.62 21 126 21 C126 23.31 126 25.62 126 28 C128.31 28 130.62 28 133 28 C133 30.31 133 32.62 133 35 C135.31 35 137.62 35 140 35 C140 37.31 140 39.62 140 42 C98.42 42 56.84 42 14 42 C14 39.69 14 37.38 14 35 C11.69 35 9.38 35 7 35 C7 32.69 7 30.38 7 28 C4.69 28 2.38 28 0 28 C0 25.69 0 23.38 0 21 C-2.31 21 -4.62 21 -7 21 C-7 16.38 -7 11.76 -7 7 C-4.69 7 -2.38 7 0 7 C0 4.69 0 2.38 0 0 Z " fill="#397A03" transform="translate(119,196)"/>
<path d="M0 0 C4.62 0 9.24 0 14 0 C14 2.31 14 4.62 14 7 C16.31 7 18.62 7 21 7 C21 9.31 21 11.62 21 14 C23.31 14 25.62 14 28 14 C28 16.31 28 18.62 28 21 C30.31 21 32.62 21 35 21 C35 44.1 35 67.2 35 91 C25.76 91 16.52 91 7 91 C7 70.21 7 49.42 7 28 C4.69 28 2.38 28 0 28 C0 25.69 0 23.38 0 21 C-2.31 21 -4.62 21 -7 21 C-7 16.38 -7 11.76 -7 7 C-4.69 7 -2.38 7 0 7 C0 4.69 0 2.38 0 0 Z " fill="#397A03" transform="translate(203,112)"/>
</svg>
